<?xml version="1.0" standalone="no"?><!DOCTYPE svg PUBLIC "-//W3C//DTD SVG 1.1//EN" "http://www.w3.org/Graphics/SVG/1.1/DTD/svg11.dtd" ><svg xmlns="http://www.w3.org/2000/svg"><metadata></metadata><defs><font id="AR PL KaitiM GB" horiz-adv-x="1024"><font-face font-family="AR PL KaitiM GB" font-weight="400" font-stretch="normal" units-per-em="1024" panose-1="2 1 6 0 3 1 1 1 1 1" ascent="900" descent="-123" x-height="1" bbox="22 -90 999 882" underline-thickness="50" underline-position="-74" unicode-range="U+2014-ff0c" /><missing-glyph horiz-adv-x="1024" d="M353 656 q0 28 -21 48 q-19 18 -51 18 q-25 -1 -46 -22 q-16 -19 -17 -44 q-1 -21 15 -98 q16 -88 29 -292 l40 0 q13 204 33 293 q18 79 18 97 ZM283 171 q-24 0 -41 -14 q-19 -16 -19 -46 q-1 -25 17 -44 q16 -16 43 -17 q25 1 42 18 q18 16 19 43 q-1 25 -17 43 q-18 18 -44 17 Z" /><glyph glyph-name="" unicode="&#xff0c;" d="M326 272 q-3 25 -20 39 q-13 12 -32 12 q-22 0 -37 -14 q-13 -13 -14 -37 q0 -22 14 -36 q16 -16 37 -16 q13 0 14 -16 q0 -13 -17 -36 q-22 -31 -81 -54 l13 -23 q57 18 95 61 q36 43 28 120 Z" /><glyph glyph-name="" unicode="&#x2014;" d="M73 414 l0 -52 l879 0 l0 52 l-879 0 Z" /><glyph glyph-name="" unicode="&#x3001;" d="M268 285 l-6 -24 q102 -27 172 -128 q15 -27 37 -12 q13 15 8 38 q-33 79 -211 126 Z" /><glyph glyph-name="" unicode="&#x3002;" d="M386 299 q-40 0 -64 -23 q-28 -28 -29 -70 q0 -46 29 -70 q25 -22 64 -23 q37 0 66 29 q27 27 27 64 q0 40 -27 66 q-28 27 -66 27 ZM340 158 q-19 16 -19 48 q0 28 20 48 q16 16 45 17 q25 0 47 -19 q18 -16 18 -46 q0 -25 -19 -44 q-21 -21 -46 -21 q-28 0 -46 17 Z" /><glyph glyph-name="" unicode="&#x4e00;" d="M518 382 q54 3 105 7 q135 10 277 -6 q28 -4 35 7 q9 15 -5 29 q-34 33 -85 56 q-16 7 -47 -2 q-75 -13 -318 -39 q-300 -25 -343 -26 q-7 0 -13 0 q-16 0 -18 -13 q-1 -15 21 -32 q19 -15 56 -29 q12 -4 33 4 q16 6 90 16 q94 19 212 28 Z" /><glyph glyph-name="" unicode="&#x4e0a;" d="M528 82 q54 1 105 6 q148 12 278 -7 q27 -3 34 7 q9 15 -5 28 q-33 31 -81 55 q-16 7 -46 -2 q-106 -19 -293 -36 q3 163 5 309 q48 -6 157 17 q87 18 94 25 q10 9 4 19 q-9 13 -42 20 q-34 6 -68 -9 q-33 -12 -69 -21 q-37 -9 -76 -14 q0 175 18 243 q13 24 -3 39 q-42 31 -75 41 q-16 3 -33 -11 q-7 -9 0 -21 q30 -43 30 -141 q0 -235 4 -501 q-103 -7 -157 -14 q-70 -10 -172 -8 q-16 0 -17 -13 q-1 -13 19 -30 q45 -33 95 -22 q55 15 182 30 q52 7 112 11 Z" /><glyph glyph-name="" unicode="&#x4e0d;" d="M632 397 q99 -76 218 -189 q18 -19 34 -24 q10 0 17 11 q12 15 -4 60 q-24 72 -266 174 q-10 6 -11 -8 q0 -15 12 -24 ZM560 677 q-1 0 0 -1 q1 -27 -10 -64 q-22 -45 -46 -84 q-15 22 -38 31 q-12 1 -16 -6 q-6 -9 20 -73 q-7 -7 -13 -16 q-58 -76 -124 -132 q-64 -58 -222 -167 q-10 -4 1 -9 q45 0 210 106 q87 67 162 155 q6 -195 -23 -330 q-13 -49 24 -104 q1 -3 5 -6 q21 -18 33 12 q16 46 16 97 q-10 300 -3 368 q4 18 3 29 q96 126 105 132 q10 6 8 17 q-1 12 -13 26 q-15 16 -33 24 q24 12 140 12 q132 0 134 1 q0 1 2 2 q7 13 -5 25 q-73 60 -131 37 q-279 -57 -546 -79 q-7 1 -12 0 q-13 -1 -14 -12 q-1 -13 18 -26 q18 -12 49 -23 q10 -4 29 5 q67 22 204 43 q30 6 86 10 Z" /><glyph glyph-name="" unicode="&#x4e0e;" d="M360 348 q93 51 332 76 q28 3 39 -7 q21 -22 11 -67 q-15 -94 -56 -221 q-10 -27 -32 -41 q-9 -3 -91 18 q-19 10 -20 0 q-1 -10 19 -28 q37 -46 52 -84 q21 -34 48 -14 q58 36 84 93 q13 42 55 252 q7 49 30 71 q16 16 9 28 q-12 13 -64 41 q-30 15 -107 -4 q-121 -15 -271 -52 q-25 -3 -19 13 q9 82 19 146 q43 -21 97 -7 q90 21 183 41 q43 10 49 17 q10 9 4 17 q-7 12 -37 19 q-28 6 -121 -27 q-87 -24 -168 -34 q-3 0 -3 -1 q18 106 39 165 q7 18 -3 30 q-18 16 -35 24 q-25 9 -34 4 q-10 -6 -2 -20 q9 -16 8 -38 q-10 -163 -40 -302 q-1 -18 -36 -54 q-12 -16 -3 -29 q10 -13 34 -29 q12 -9 30 4 ZM417 224 q159 21 237 17 q22 -1 28 8 q7 13 -6 24 q-31 24 -74 39 q-13 4 -38 -5 q-42 -12 -85 -21 q-133 -21 -223 -39 q-42 -9 -105 -14 q-13 -1 -13 -12 q0 -12 19 -24 q16 -10 47 -20 q10 -3 28 6 q10 4 54 14 q58 16 131 27 Z" /><glyph glyph-name="" unicode="&#x4e2a;" d="M505 679 q109 -141 251 -288 q21 -24 56 -22 q121 4 159 12 q12 3 13 8 q0 6 -17 13 q-177 54 -225 93 q-103 84 -223 205 q12 24 32 44 q9 6 7 16 q-1 10 -15 24 q-36 31 -68 27 q-10 -3 -7 -16 q18 -103 -168 -310 q-4 -3 -7 -7 q-52 -55 -183 -162 q-10 -4 2 -8 q66 9 194 121 q81 75 199 250 ZM472 486 q28 -45 3 -333 q-1 -10 -3 -22 q-1 -28 -5 -40 q-13 -54 41 -110 q1 -1 4 -3 q12 -1 17 12 q6 18 7 102 q-7 294 4 363 q1 13 -5 19 q-24 21 -43 30 q-13 4 -22 -4 q-6 -4 2 -14 Z" /><glyph glyph-name="" unicode="&#x4e2d;" d="M475 365 q-3 -348 10 -376 q1 -1 3 -5 q15 -16 24 6 q18 42 18 380 q100 10 234 16 q12 1 14 11 q1 9 -26 28 q13 37 25 73 q16 48 51 80 q25 25 -7 46 q-28 24 -59 42 q-19 13 -45 2 q-40 -13 -102 -22 q-40 -4 -80 -10 q3 106 24 142 q7 16 -14 33 q-25 19 -70 32 q-21 4 -34 -10 q-10 -7 3 -21 q28 -25 31 -59 q0 -49 1 -125 q-49 -6 -96 -15 q-73 -10 -126 -17 q-10 7 -52 12 q-13 3 -17 -3 q-7 -7 4 -25 q39 -73 65 -196 q6 -37 28 -60 q21 -24 25 -6 q3 10 3 25 q4 0 11 0 q61 13 154 22 ZM476 419 q-1 -10 -1 -20 q-90 -10 -169 -18 q-1 9 -3 18 q-27 114 -36 157 q7 0 19 3 q114 28 190 34 q0 -76 0 -174 ZM534 600 q70 9 164 15 q19 1 26 -8 q15 -24 -31 -172 q-87 -15 -163 -28 q1 112 4 193 Z" /><glyph glyph-name="" unicode="&#x4e4e;" d="M312 554 q30 -46 61 -65 q15 -4 26 8 q7 13 6 30 q-4 25 -21 39 q-39 30 -73 31 q-6 1 -9 -1 q-7 -1 -5 -13 q0 -13 15 -29 ZM684 637 q-18 -30 -77 -101 q-12 -19 8 -15 q39 18 115 65 q22 18 49 29 q24 10 12 31 q-13 19 -43 36 q-27 16 -41 13 q-15 -1 -10 -17 q3 -21 -13 -41 ZM509 389 q1 -246 -46 -317 q-4 -9 -13 -12 q-15 -1 -97 27 q-9 1 -11 -2 q-3 -4 6 -14 q61 -61 91 -108 q10 -15 19 -13 q16 1 45 29 q61 58 65 175 q4 70 -6 240 q180 24 342 6 q33 0 37 4 q0 1 1 1 q7 13 -5 26 q-73 66 -137 44 q-61 -12 -124 -22 q-70 -6 -117 -12 q-9 115 -14 148 q-6 49 -7 87 q0 19 -13 28 q-16 12 -31 18 q154 42 180 44 q19 -1 24 7 q6 10 -6 25 q-63 54 -99 54 q-7 -4 -10 -15 q-4 -43 -252 -128 q-7 -1 -13 -4 q-7 -10 0 -13 q18 -6 130 21 q4 1 9 1 q40 -40 51 -279 q-6 1 -206 -22 q-70 -10 -177 -11 q-13 0 -15 -12 q-1 -13 18 -28 q18 -13 50 -25 q12 -4 30 4 q16 6 92 18 q93 22 209 30 Z" /><glyph glyph-name="" unicode="&#x4e9b;" d="M255 339 q-28 -4 -55 -13 q-22 -6 -59 -4 q-15 -1 -17 -12 q-3 -13 7 -23 q24 -18 59 -40 q10 -4 24 5 q51 33 247 108 q30 15 63 31 q13 7 15 17 q-6 7 -19 4 q-55 -16 -114 -33 q0 87 -1 168 q64 16 112 27 q22 7 13 19 q-13 13 -38 14 q-43 3 -87 -28 q-1 45 10 153 q3 10 -17 23 q-34 16 -57 18 q-16 1 -22 -6 q-7 -7 2 -22 q25 -31 26 -54 q16 -148 21 -323 q-37 -9 -74 -19 q-16 147 -13 177 q1 22 -13 32 q-22 16 -50 23 q-13 4 -21 -3 q-7 -6 0 -20 q19 -30 29 -62 q9 -31 29 -157 ZM934 364 q-16 40 -27 108 q-1 16 -9 22 q-9 6 -13 -16 q-21 -81 -34 -94 q-21 -24 -123 -25 q-52 3 -76 13 q-39 21 -44 160 q58 16 178 62 q25 10 53 14 q25 3 20 25 q-9 22 -31 45 q-21 22 -35 23 q-13 3 -14 -13 q-3 -34 -91 -85 q-37 -24 -80 -49 q3 129 26 190 q13 31 -7 49 q-52 40 -69 35 q-16 -6 -8 -24 q21 -40 17 -97 q-7 -315 33 -359 q22 -22 78 -34 q51 -10 133 -11 q73 -1 103 13 q31 15 20 48 ZM379 232 q-40 -7 -12 -25 q43 -27 106 -12 q69 13 140 27 q33 7 38 11 q9 9 4 18 q-7 13 -39 21 q-31 7 -65 -6 q-37 -12 -76 -21 q-45 -9 -96 -13 ZM202 56 q-22 -1 -6 -21 q16 -16 35 -22 q24 -7 41 -2 q171 45 528 45 q19 0 39 -1 q22 -1 28 9 q6 13 -12 28 q-58 45 -99 36 q-171 -33 -554 -72 Z" /><glyph glyph-name="" unicode="&#x4ea6;" d="M461 768 q37 -28 78 -61 q16 -13 33 -11 q12 1 17 16 q4 16 -8 49 q-15 39 -129 59 q-18 3 -24 -1 q-6 -4 -3 -18 q4 -13 36 -33 ZM378 496 q27 -51 0 -217 q-10 -43 -33 -96 q-24 -54 -95 -118 q-16 -13 -20 -19 q-3 -7 10 -8 q36 -3 102 57 q91 88 115 335 q6 21 8 33 q7 22 -14 34 q-51 28 -67 26 q-22 -3 -6 -27 ZM524 77 q-28 10 -63 19 q-13 4 -12 -4 q0 -9 11 -18 q72 -57 118 -103 q12 -10 27 7 q43 61 37 139 q-12 240 -1 399 q7 28 0 39 q-7 10 -32 25 q84 4 190 3 q30 -1 56 0 q22 -1 28 9 q6 13 -12 28 q-57 45 -128 30 q-247 -40 -589 -78 q-22 -1 -6 -21 q16 -16 35 -22 q24 -6 41 -1 q171 45 333 49 q1 -6 8 -16 q13 -33 12 -403 q0 -66 -12 -82 q-12 -7 -41 1 ZM253 403 q-36 -55 -80 -104 q-27 -30 -14 -68 q4 -19 28 -11 q25 13 46 43 q28 39 36 76 q12 33 9 60 q-4 10 -10 12 q-9 0 -15 -8 ZM714 406 q57 -54 124 -133 q16 -22 33 -27 q10 -1 18 9 q13 13 2 62 q-16 64 -175 123 q-10 6 -13 -7 q-1 -16 11 -27 Z" /><glyph glyph-name="" unicode="&#x4eba;" d="M462 456 q18 -33 113 -164 q91 -121 158 -191 q31 -34 60 -32 q88 6 165 10 q33 1 34 10 q1 9 -36 23 q-184 66 -216 93 q-123 99 -250 261 q-9 10 -15 19 q72 168 88 198 q10 12 2 25 q-7 13 -46 34 q-28 15 -39 12 q-18 -4 -15 -24 q19 -193 -173 -422 q-12 -12 -23 -24 q-57 -67 -201 -182 q-10 -10 -2 -13 q10 -3 24 3 q100 46 184 118 q106 84 188 246 Z" /><glyph glyph-name="" unicode="&#x4ecd;" d="M239 497 q1 -7 7 -15 q30 -69 7 -252 q-9 -54 -23 -111 q-10 -45 24 -96 q1 0 3 -3 q18 -16 30 11 q15 40 14 87 q3 267 12 326 q7 27 -2 38 q-42 46 -46 48 q42 55 88 126 q28 51 53 75 q10 10 6 26 q-4 13 -35 39 q-28 19 -49 20 q-19 -1 -11 -26 q13 -34 1 -62 q-40 -94 -100 -182 q-58 -85 -138 -177 q-12 -10 -14 -18 q-4 -12 12 -9 q12 1 39 26 q48 37 106 110 q7 10 16 19 ZM525 614 q10 -24 0 -84 q-1 -3 -1 -7 q-21 -130 -68 -230 q-42 -79 -115 -169 q-4 -6 -8 -11 q-4 -10 7 -9 q31 0 113 101 q9 15 20 30 q61 99 114 305 q15 51 15 52 q-1 1 -1 2 q-13 16 -35 31 q81 24 138 33 q22 3 28 -7 q9 -7 -4 -60 q-28 -103 -61 -139 q-10 -13 -8 -21 q1 -10 14 -20 q10 -6 23 1 q27 15 92 19 q19 4 30 -4 q13 -10 13 -49 q0 -148 -66 -249 q-18 -28 -45 -22 q-31 12 -64 26 q-22 7 -8 -16 q37 -49 61 -93 q10 -28 37 -14 q78 43 103 136 q19 66 38 211 q4 25 16 43 q12 16 -2 31 q-51 46 -126 28 q-52 -3 -54 1 q0 1 0 2 q1 19 38 90 q40 72 59 88 q24 16 18 31 q-9 19 -67 42 q-18 7 -42 -5 q-31 -16 -190 -53 q-46 -10 -82 -8 q-21 1 -16 -13 q4 -10 37 -21 q18 -6 49 1 Z" /><glyph glyph-name="" unicode="&#x4eec;" d="M354 604 q22 -51 23 -113 q6 -228 -31 -350 q-16 -57 18 -96 q12 -15 22 0 q33 39 33 189 q0 261 13 337 q1 19 -15 29 q-22 19 -51 28 q-10 3 -16 -6 q-4 -7 4 -18 ZM448 683 q51 -70 80 -74 q13 -1 21 18 q1 13 -7 35 q-10 18 -34 28 q-39 19 -55 22 q-10 1 -11 -10 q-1 -9 6 -19 ZM592 673 q-16 1 -12 -9 q6 -13 27 -23 q13 -9 36 -5 q42 13 92 26 q22 1 32 -12 q13 -7 18 -70 q13 -211 1 -451 q0 -34 -14 -45 q-16 -13 -103 7 q-16 1 -15 -8 q1 -7 15 -12 q76 -45 117 -81 q22 -19 34 -16 q13 3 23 32 q15 46 12 111 q-16 328 -15 450 q1 39 13 62 q13 21 3 32 q-10 16 -56 40 q-18 10 -89 -9 q-108 -18 -119 -19 ZM187 488 q0 0 1 -2 q4 -16 11 -28 q30 -63 7 -238 q-7 -51 -21 -105 q-15 -49 22 -97 q1 -3 5 -6 q19 -16 31 12 q15 42 15 90 q3 247 12 303 q7 28 -3 39 q-18 22 -32 36 q-12 13 -28 21 q52 64 110 156 q25 49 50 72 q10 10 5 25 q-4 13 -35 37 q-28 19 -47 19 q-19 -1 -11 -25 q13 -31 2 -58 q-37 -91 -93 -176 q-55 -82 -129 -171 q-10 -10 -13 -17 q-4 -12 11 -9 q34 4 130 122 Z" /><glyph glyph-name="" unicode="&#x4f1a;" d="M496 691 q3 -3 7 -8 q115 -145 244 -276 q24 -28 67 -31 q78 -7 159 4 q22 1 23 6 q3 7 -13 15 q-58 27 -127 54 q-153 66 -326 238 q-13 13 -21 19 q9 18 28 37 q9 6 7 17 q-1 12 -16 25 q-36 33 -73 28 q-10 -3 -7 -16 q18 -102 -153 -301 q-10 -12 -21 -23 q-52 -57 -184 -166 q-10 -6 2 -9 q36 4 140 77 q3 3 7 5 q117 88 257 305 ZM362 428 q-39 -7 -11 -25 q43 -27 106 -10 q69 13 140 28 q33 7 38 12 q10 9 5 18 q-9 13 -40 20 q-30 6 -110 -20 q-64 -16 -128 -23 ZM668 105 q27 -36 57 -81 q13 -22 27 -28 q9 -3 17 6 q13 12 8 56 q-4 58 -159 148 q-7 7 -12 -5 q-1 -13 7 -25 q19 -22 39 -50 q-132 -21 -269 -44 q-10 -3 -13 1 q-1 3 5 10 q94 112 129 141 q16 15 7 25 q-7 9 -26 16 q90 12 284 13 q22 0 27 9 q6 13 -12 28 q-57 42 -97 31 q-118 -25 -478 -76 q-22 -3 -5 -21 q15 -15 34 -20 q22 -6 40 -1 q69 19 147 29 q0 -66 -79 -148 q-25 -25 -70 -47 q-31 -12 -31 -23 q-1 -19 8 -41 q10 -22 25 -29 q7 -4 20 2 q96 57 340 118 q15 4 30 6 Z" /><glyph glyph-name="" unicode="&#x4f34;" d="M232 499 q36 -36 13 -251 q-7 -54 -20 -109 q-15 -49 22 -97 q1 -3 5 -6 q19 -16 31 12 q15 42 15 90 q0 256 8 315 q7 30 -19 58 q-6 6 -25 26 q31 43 68 97 q28 46 52 69 q10 10 5 26 q-4 13 -34 39 q-28 19 -48 20 q-21 -1 -12 -25 q13 -31 1 -58 q-39 -88 -96 -171 q-55 -79 -130 -165 q-10 -10 -14 -17 q-4 -13 12 -10 q36 4 140 127 q12 15 26 30 ZM461 574 q16 -18 32 -40 q13 -13 30 -15 q12 0 18 14 q6 15 -1 47 q-6 24 -81 45 q-16 4 -23 2 q-6 -4 -5 -17 q3 -12 30 -36 ZM774 654 q-4 -9 -59 -87 q-10 -18 7 -14 q45 22 96 54 q19 16 45 28 q22 10 11 29 q-13 18 -41 33 q-25 15 -39 11 q-13 -1 -9 -16 q4 -19 -11 -38 ZM594 278 q-6 -292 14 -326 q15 -16 24 6 q18 39 18 328 q91 10 229 10 q60 -3 68 8 q6 12 -11 26 q-52 39 -90 30 q-73 -16 -196 -36 q0 81 1 110 q54 10 146 20 q10 -1 20 12 q1 12 -22 22 q-34 24 -138 -9 q-3 0 -5 -1 q1 243 23 276 q9 27 -10 41 q-25 19 -70 32 q-21 4 -34 -10 q-10 -7 3 -21 q30 -25 32 -60 q0 -94 0 -270 q-57 -6 -140 -17 q-28 -4 -6 -21 q31 -27 61 -19 q37 7 85 16 q0 -54 -1 -109 q-108 -13 -231 -30 q-21 -1 -5 -19 q13 -13 32 -19 q22 -6 37 -1 q78 22 166 31 Z" /><glyph glyph-name="" unicode="&#x4f3c;" d="M403 429 q15 -46 1 -131 q-3 -39 -36 -84 q-21 -27 20 -68 q3 -1 6 -5 q13 -9 26 8 q43 70 182 223 q13 13 15 22 q1 7 -6 5 q-12 -4 -133 -112 q-10 -7 -16 -5 q-3 1 -3 11 q-4 160 -2 178 q3 18 -9 26 q-13 10 -57 20 q-16 1 -22 -3 q-7 -7 6 -25 q19 -25 28 -60 ZM226 480 q4 -13 10 -22 q28 -60 9 -238 q-7 -51 -20 -105 q-15 -49 22 -97 q1 -3 5 -6 q19 -16 31 12 q15 42 15 90 q0 247 8 303 q7 28 -3 39 q-18 22 -32 36 q-9 10 -20 16 q48 58 101 132 q31 51 59 74 q10 10 7 26 q-4 13 -33 40 q-28 22 -48 23 q-19 -1 -13 -25 q13 -36 -2 -64 q-78 -160 -265 -358 q-10 -10 -14 -16 q-4 -12 11 -10 q40 6 155 132 q7 9 17 18 ZM552 618 q31 -22 65 -51 q16 -13 32 -10 q12 1 16 15 q3 16 -8 47 q-15 33 -114 49 q-16 3 -23 -1 q-4 -4 -3 -18 q4 -10 35 -31 ZM753 262 q49 123 60 167 q6 90 28 173 q4 27 16 51 q10 22 -9 31 q-55 39 -86 27 q-16 -6 -7 -22 q33 -55 8 -223 q-9 -46 -24 -99 q-60 -174 -226 -297 q-16 -13 -34 -27 q-15 -12 -1 -14 q16 0 56 17 q73 37 126 91 q52 48 80 100 q75 -70 165 -173 q16 -21 31 -26 q9 -1 17 9 q13 13 1 58 q-12 63 -201 157 Z" /><glyph glyph-name="" unicode="&#x4f46;" d="M229 515 q21 -42 22 -133 q-1 -10 -1 -22 q0 -112 -29 -229 q-15 -49 22 -97 q1 -3 5 -6 q19 -16 31 12 q15 42 15 90 q-1 277 8 339 q7 30 -19 58 q-6 6 -25 26 q37 52 80 117 q28 51 53 75 q10 12 6 27 q-4 15 -36 40 q-30 19 -50 20 q-21 -1 -12 -27 q15 -34 2 -62 q-40 -96 -100 -185 q-58 -85 -137 -180 q-12 -12 -14 -18 q-4 -13 12 -10 q45 9 167 165 ZM533 346 q6 -1 14 0 q55 10 173 15 q1 -4 3 -8 q7 -18 22 -16 q15 3 24 20 q18 28 43 159 q16 61 58 97 q22 19 2 37 q-22 19 -81 48 q-18 9 -83 -9 q-28 0 -211 -48 q-10 7 -48 17 q-13 4 -16 -2 q-7 -6 1 -22 q34 -90 47 -233 q1 -43 23 -73 q16 -22 23 -7 q4 10 6 25 ZM706 400 q-16 10 -47 3 q-69 -15 -126 -23 q0 7 -15 103 q3 0 168 27 q25 4 15 18 q-12 15 -38 19 q-33 3 -148 -39 q-10 64 -12 94 q6 0 12 2 q61 22 204 45 q25 3 34 -2 q15 -7 8 -52 q-27 -180 -40 -206 q-6 4 -15 11 ZM359 181 q-24 -1 -7 -22 q34 -34 79 -25 q225 51 503 31 q22 0 28 9 q7 13 -12 30 q-57 46 -101 38 q-141 -27 -490 -61 Z" /><glyph glyph-name="" unicode="&#x4f60;" d="M241 527 q21 -21 17 -152 q0 -1 0 -5 q-4 -117 -37 -235 q-6 -21 3 -55 q12 -36 24 -48 q19 -16 31 12 q15 42 15 90 q9 286 20 351 q7 30 -19 58 q-6 6 -23 24 q34 46 70 102 q28 49 53 74 q10 10 5 26 q-4 13 -35 39 q-28 19 -49 20 q-19 -1 -11 -26 q13 -33 1 -61 q-39 -94 -99 -181 q-57 -84 -135 -175 q-12 -10 -14 -18 q-4 -12 12 -9 q12 1 39 26 q46 37 104 109 q13 16 28 34 ZM503 532 q24 -22 52 -12 q240 88 227 29 q1 -6 -39 -81 q-7 -10 -2 -15 q4 -6 15 6 q96 73 138 90 q10 3 11 12 q1 13 -29 31 q-24 13 -48 29 q-28 16 -45 9 q-97 -40 -262 -70 q40 61 81 148 q18 43 36 65 q7 13 1 26 q-6 12 -37 31 q-30 16 -48 13 q-19 -4 -8 -26 q15 -22 6 -60 q-39 -138 -145 -309 q-9 -12 -10 -18 q-3 -12 12 -7 q30 9 94 109 ZM568 72 q-37 9 -74 19 q-12 3 -11 -5 q1 -7 11 -15 q75 -64 102 -104 q15 -16 30 -3 q33 33 35 118 q-6 67 -6 263 q1 37 12 62 q9 19 -8 32 q-25 22 -55 31 q-19 7 -27 -1 q-6 -7 5 -22 q37 -63 21 -320 q-6 -45 -14 -53 q-7 -7 -21 -2 ZM444 320 q-25 -58 -59 -112 q-21 -28 -4 -64 q7 -16 28 -5 q51 42 59 125 q4 31 -1 55 q-4 9 -11 9 q-7 -1 -12 -8 ZM738 307 q51 -58 109 -139 q13 -22 29 -29 q9 -1 17 7 q15 13 7 58 q-9 60 -157 134 q-9 7 -12 -6 q-3 -13 7 -25 Z" /><glyph glyph-name="" unicode="&#x4fa3;" d="M226 487 q3 -9 8 -16 q31 -58 12 -244 q-7 -52 -20 -108 q-10 -45 24 -96 q1 0 3 -3 q18 -16 30 11 q15 40 14 87 q-3 256 4 314 q7 27 -2 38 q-42 45 -49 49 q39 55 83 127 q27 51 52 76 q10 12 5 27 q-4 13 -37 38 q-30 19 -51 19 q-21 -1 -11 -26 q16 -34 3 -62 q-37 -97 -95 -186 q-55 -87 -132 -182 q-10 -12 -13 -18 q-4 -13 12 -10 q33 9 135 132 q3 9 25 33 ZM519 462 q7 -1 20 1 q67 16 212 28 q12 1 13 11 q0 9 -31 28 q30 81 60 101 q18 19 3 37 q-16 13 -71 40 q-18 9 -93 -18 q-91 -21 -150 -31 q-12 4 -37 10 q-13 4 -16 -2 q-7 -6 2 -22 q27 -58 42 -154 q3 -28 19 -47 q18 -22 23 -7 q3 10 4 25 ZM517 498 q-15 96 -18 128 q10 1 170 32 q19 4 27 -4 q13 -15 -16 -122 q-91 -22 -163 -34 ZM500 91 q10 -1 21 1 q88 16 280 26 q12 1 14 11 q0 9 -31 31 q31 96 72 129 q21 22 4 43 q-19 16 -81 49 q-21 10 -47 0 q-214 -67 -315 -45 q-4 1 -7 1 q-13 4 -17 -2 q-7 -7 2 -24 q34 -76 52 -197 q3 -37 23 -61 q19 -25 26 -7 q6 16 4 45 ZM496 129 q-22 127 -25 164 q3 0 235 35 q25 4 36 -6 q12 -13 8 -37 q-13 -66 -29 -121 q-126 -25 -225 -35 Z" /><glyph glyph-name="" unicode="&#x504f;" d="M207 453 q21 -66 21 -96 q0 -147 -24 -246 q-12 -51 22 -90 q1 -3 4 -5 q16 -16 28 10 q15 40 14 85 q-3 241 4 296 q7 27 -2 37 q-37 40 -42 44 q46 66 96 155 q25 52 50 79 q9 12 3 25 q-4 13 -35 36 q-30 18 -49 17 q-19 -3 -10 -26 q16 -33 5 -62 q-60 -166 -222 -380 q-10 -10 -13 -17 q-3 -12 12 -9 q37 9 138 147 ZM572 753 q28 -16 58 -39 q16 -10 33 -7 q10 1 14 17 q1 16 -13 45 q-9 18 -40 26 q-75 15 -89 4 q-4 -4 0 -18 q6 -10 37 -28 ZM665 111 q3 -18 8 -25 q4 -4 9 -3 q21 18 21 122 q30 4 58 7 q24 3 16 16 q-10 16 -35 21 q-15 4 -37 0 q1 43 8 65 q3 13 -7 19 q-16 12 -27 16 q108 18 126 -1 q7 -9 3 -23 q7 -208 -7 -239 q-3 -10 -16 -8 q-30 3 -62 6 q-27 0 -7 -15 q70 -45 99 -79 q13 -15 27 -2 q16 19 24 48 q10 31 1 199 q-4 61 13 94 q13 19 8 28 q-7 12 -58 42 q-18 13 -33 7 q-28 -10 -78 -21 q-148 -19 -204 -34 q-42 -10 -74 -14 q-4 0 -4 -1 q18 43 34 114 q9 -9 33 -5 q81 19 257 39 q10 1 11 9 q0 7 -22 21 q27 61 56 82 q16 18 2 35 q-75 61 -125 29 q-90 -31 -198 -48 q-10 9 -24 16 q-16 10 -28 7 q-10 -4 -6 -18 q12 -24 9 -64 q-19 -163 -55 -245 q-36 -81 -98 -165 q-4 -6 -7 -11 q-3 -9 7 -8 q39 9 105 108 q6 12 13 22 q12 22 23 48 q24 -66 -2 -178 q-21 -49 8 -82 q7 -10 15 -5 q24 21 26 99 q0 132 4 163 q6 1 14 4 q19 7 48 16 q10 -10 14 -100 q-28 -4 -55 -10 q-16 -3 3 -19 q4 -4 53 -5 q0 -64 9 -82 q10 -19 17 -8 q9 21 11 95 q37 6 73 10 q1 -10 1 -22 q0 -49 2 -67 ZM656 329 q6 -9 6 -87 q-37 -7 -73 -16 q0 57 2 72 q1 10 -2 15 q-7 6 -26 13 q30 12 87 18 q0 0 6 -15 ZM476 474 q13 75 26 109 q15 0 185 38 q19 4 28 -3 q9 -12 -16 -100 q-124 -30 -223 -44 Z" /><glyph glyph-name="" unicode="&#x5168;" d="M504 681 q237 -279 295 -287 q7 0 18 0 q121 12 159 22 q10 3 12 9 q0 6 -17 13 q-162 40 -227 83 q-103 75 -224 184 q1 1 2 2 q13 18 21 25 q9 6 7 18 q-1 10 -14 25 q-37 34 -72 30 q-10 -1 -8 -16 q10 -99 -150 -280 q-15 -13 -28 -28 q-54 -54 -184 -156 q-10 -6 2 -9 q36 4 139 70 q1 3 6 4 q114 78 263 291 ZM467 64 q-129 -13 -276 -28 q-24 -1 -7 -21 q15 -16 35 -22 q22 -7 41 -2 q234 57 543 36 q0 1 3 0 q22 -1 28 9 q7 13 -11 28 q-57 45 -99 37 q-79 -15 -212 -32 q3 73 6 137 q43 9 89 15 q48 10 55 16 q9 7 4 15 q-6 12 -34 20 q-27 6 -111 -18 q1 19 2 38 q1 15 2 25 q7 19 -2 29 q-16 16 -30 25 q159 31 165 36 q10 7 5 17 q-7 12 -37 20 q-31 7 -61 -4 q-51 -16 -106 -29 q-61 -13 -132 -18 q-37 -4 -11 -23 q36 -21 115 -10 q9 1 20 3 q15 -24 15 -123 q-3 1 -6 0 q-66 -12 -142 -17 q-34 -4 -10 -21 q36 -27 93 -15 q31 6 66 11 q0 -52 0 -134 Z" /><glyph glyph-name="" unicode="&#x5171;" d="M391 318 q-130 -12 -272 -28 q-25 -3 -7 -23 q34 -34 82 -25 q240 61 665 62 q28 0 54 -1 q24 0 30 10 q7 13 -13 30 q-60 46 -105 38 q-78 -15 -190 -32 q10 97 22 190 q129 24 140 33 q10 9 6 18 q-7 15 -40 24 q-31 9 -99 -12 q6 66 31 153 q4 12 -16 29 q-37 24 -64 29 q-18 6 -27 -4 q-10 -7 -1 -25 q25 -40 23 -67 q-1 -64 -4 -132 q-49 -10 -99 -21 q-36 -6 -73 -13 q1 79 6 100 q4 25 -12 39 q-25 21 -55 32 q-16 7 -26 0 q-9 -7 -2 -24 q31 -64 37 -153 q-52 -4 -109 -8 q-42 -4 -13 -25 q45 -28 125 -16 q1 -67 6 -178 ZM508 332 q-36 -3 -72 -9 q-3 106 -3 180 q82 15 170 28 q-7 -91 -16 -189 q-39 -4 -79 -10 ZM365 177 q-58 -79 -155 -167 q-12 -16 5 -19 q40 0 134 78 q46 39 94 78 q19 10 12 29 q-7 16 -48 44 q-13 9 -25 5 q-16 -6 -11 -20 q7 -16 -6 -28 ZM613 198 q61 -67 133 -163 q16 -25 35 -33 q10 -3 21 9 q16 15 6 68 q-7 48 -90 101 q-18 12 -100 55 q-10 7 -15 -7 q-1 -16 10 -30 Z" /><glyph glyph-name="" unicode="&#x51c6;" d="M193 634 q30 -28 60 -60 q13 -15 30 -15 q12 0 18 14 q6 15 -2 47 q-10 37 -108 65 q-16 4 -23 2 q-6 -4 -5 -17 q4 -12 30 -36 ZM285 411 q-76 -151 -129 -235 q-12 -16 -25 -15 q-18 1 -21 -20 q1 -28 18 -47 q21 -27 38 -35 q13 -7 25 -3 q9 4 12 16 q6 48 18 87 q39 115 74 223 q7 22 6 30 q-4 18 -16 -1 ZM643 721 q28 -22 59 -51 q13 -12 28 -11 q10 1 15 13 q4 15 -5 43 q-12 33 -103 52 q-15 3 -21 0 q-4 -4 -3 -16 q4 -10 30 -30 ZM651 146 q-82 -10 -174 -25 q-1 279 9 344 q7 28 -3 39 q-18 22 -32 36 q-4 6 -11 9 q1 3 5 6 q48 63 98 159 q19 43 40 66 q9 12 3 25 q-6 13 -36 34 q-28 16 -48 15 q-19 -4 -9 -25 q16 -28 7 -53 q-42 -138 -172 -324 q-9 -12 -11 -18 q-3 -12 12 -8 q24 6 84 84 q24 -72 25 -77 q-1 -1 0 -5 q0 -207 -33 -341 q-15 -49 22 -97 q1 -3 5 -6 q19 -16 31 12 q12 39 14 98 q24 -13 74 -6 q114 28 356 29 q19 1 24 9 q6 10 -11 24 q-54 40 -117 23 q-45 -7 -108 -21 q1 64 4 123 q58 12 110 18 q25 4 16 18 q-12 16 -40 22 q-31 6 -84 -12 q1 43 3 83 q46 10 90 16 q25 6 15 19 q-12 16 -40 21 q-25 3 -63 -9 q0 27 3 54 q7 24 -16 42 q147 39 151 40 q9 9 3 17 q-7 12 -37 19 q-30 4 -121 -28 q-75 -19 -144 -29 q-37 -7 -10 -24 q48 -21 102 -7 q1 0 6 0 q9 -33 11 -100 q-51 -15 -94 -28 q-19 -4 4 -20 q12 -7 35 -4 q27 6 55 11 q-1 -34 -2 -86 q-57 -13 -104 -25 q-19 -4 4 -21 q13 -9 39 -5 q31 6 61 10 q-1 -52 -1 -121 Z" /><glyph glyph-name="" unicode="&#x51fa;" d="M255 9 q19 -16 29 -16 q7 0 15 7 q36 45 289 96 q7 3 167 27 q10 1 20 4 q4 -99 21 -124 q19 -34 31 -13 q13 22 13 76 q1 142 4 171 q1 21 -5 28 q-15 13 -65 29 q-16 7 -23 1 q-10 -7 -1 -32 q13 -43 21 -102 q-94 -3 -220 -28 q6 156 11 302 q93 25 167 23 q-1 0 0 -1 q3 -36 12 -60 q9 -21 25 -8 q33 27 46 125 q24 58 31 67 q10 16 0 35 q-21 21 -57 46 q-13 10 -29 5 q-10 -4 -8 -20 q28 -48 -8 -146 q-1 0 -2 -3 q-93 -9 -176 -24 q1 165 29 304 q4 15 -22 34 q-48 25 -80 30 q-22 4 -32 -7 q-10 -10 1 -30 q40 -58 40 -98 q4 -117 6 -243 q-94 -15 -175 -39 q-24 -4 -18 23 q15 106 5 124 q-36 43 -67 39 q-13 -4 -4 -26 q22 -52 14 -106 q-6 -49 -27 -72 q-21 -19 -13 -35 q13 -16 31 -29 q16 -10 27 0 q30 33 227 79 q-1 -142 -10 -299 q-115 -18 -154 -35 q-9 -3 -12 1 q-3 3 10 126 q1 42 -51 65 q-7 3 -14 3 q-15 1 -20 -2 q-4 -7 9 -29 q39 -73 -6 -166 q-7 -10 -16 -20 q-16 -13 -13 -25 q4 -12 27 -32 Z" /><glyph glyph-name="" unicode="&#x5207;" d="M276 448 q-13 -195 -48 -238 q-13 -19 -3 -41 q13 -21 31 -29 q10 -7 24 10 q25 37 158 157 q28 22 31 32 q1 7 -4 9 q-7 1 -26 -11 q-57 -39 -120 -80 q-13 -13 -16 6 q10 97 19 197 q39 13 80 23 q45 13 51 20 q9 9 3 17 q-7 12 -38 17 q-39 6 -91 -23 q24 250 24 251 q-3 4 -5 6 q-24 19 -50 28 q-30 10 -41 -4 q-9 -12 5 -25 q33 -33 19 -273 q-96 -27 -160 -38 q-37 -9 -9 -24 q43 -24 101 -5 q31 9 65 18 ZM598 497 q0 -1 1 -3 q16 -153 -127 -316 q-109 -108 -132 -129 q-27 -15 -14 -22 q39 -6 149 90 q106 88 173 280 q12 31 28 62 q7 10 2 19 q-19 27 -42 28 q79 22 156 31 q16 1 19 -7 q7 -16 3 -62 q-16 -165 -50 -251 q-18 -55 -36 -71 q-12 -12 -37 -3 q-28 7 -55 17 q-22 7 -8 -15 q40 -49 62 -87 q7 -21 28 -16 q21 3 46 30 q72 72 104 350 q7 63 31 99 q18 21 9 31 q-16 19 -51 35 q-25 13 -52 2 q-64 -27 -161 -45 q-85 -16 -133 -17 q-19 1 -19 -8 q-1 -10 20 -23 q25 -16 49 -9 q18 6 37 10 Z" /><glyph glyph-name="" unicode="&#x5230;" d="M322 190 q-64 -13 -130 -30 q-22 -6 -59 -4 q-15 -1 -17 -12 q-3 -15 7 -24 q25 -19 61 -42 q10 -4 25 5 q46 31 97 51 q78 28 154 58 q30 12 51 27 q15 7 16 17 q-6 7 -20 5 q-67 -19 -140 -39 q1 58 5 109 q103 24 111 30 q9 7 4 16 q-7 10 -35 18 q-39 6 -78 -14 q6 84 1 89 q-16 16 -32 26 q40 15 102 31 q9 3 16 6 q28 -48 40 -51 q9 -1 16 7 q7 10 9 38 q0 33 -80 85 q-12 7 -18 7 q-4 -3 -7 -13 q0 -10 17 -35 q4 -7 10 -16 q-88 -16 -182 -44 q-9 -4 -12 -1 q-1 3 4 11 q97 118 117 137 q13 10 7 23 q-6 12 -45 33 q61 13 126 23 q40 9 47 14 q10 7 5 17 q-7 12 -37 20 q-25 6 -132 -25 q-70 -15 -147 -21 q-37 -6 -12 -24 q45 -24 100 -13 q1 1 4 0 q0 -48 -1 -53 q-54 -108 -125 -154 q-27 -22 20 -61 q10 -10 25 0 q30 25 95 47 q10 -28 14 -112 q-1 -3 0 -8 q-6 0 -11 -2 q-49 -12 -108 -18 q-34 -6 -9 -22 q39 -21 105 -6 q10 3 24 4 q0 -45 2 -110 ZM573 596 q33 -72 12 -252 q-9 -36 22 -71 q10 -10 20 1 q16 28 17 118 q-4 108 3 175 q6 22 -14 34 q-16 10 -34 18 q-13 4 -22 -1 q-9 -7 -4 -22 ZM767 696 q4 -34 5 -562 q-1 -22 -12 -31 q-7 -3 -81 14 q-34 15 -32 3 q1 -7 22 -24 q69 -58 85 -89 q19 -37 37 -39 q16 -1 32 36 q19 49 18 129 q-39 442 2 592 q18 33 -43 57 q-37 19 -57 11 q-19 -7 -2 -32 q24 -28 26 -65 Z" /><glyph glyph-name="" unicode="&#x529b;" d="M461 514 q-69 -283 -300 -426 q-19 -13 -38 -28 q-16 -12 0 -14 q16 -1 59 16 q85 39 148 99 q72 63 119 157 q58 127 72 207 q79 15 158 23 q25 1 30 -11 q9 -19 3 -67 q-19 -177 -56 -270 q-19 -58 -39 -76 q-13 -13 -41 -4 q-37 12 -71 24 q-25 7 -8 -15 q49 -55 76 -96 q10 -24 33 -17 q22 1 48 31 q78 75 113 374 q7 67 34 105 q19 25 9 37 q-18 22 -59 40 q-28 16 -60 2 q-70 -25 -164 -44 q31 156 46 184 q12 22 -8 33 q-58 42 -91 32 q-16 -6 -8 -24 q30 -63 2 -236 q-165 -19 -227 -18 q-25 4 -25 -10 q-1 -12 24 -30 q31 -24 63 -14 q79 21 158 36 Z" /><glyph glyph-name="" unicode="&#x5343;" d="M488 9 q6 -28 13 -38 q6 -7 14 -5 q16 9 23 74 q10 85 8 171 q-4 55 -1 230 q189 18 294 10 q73 -3 79 2 q7 13 -5 26 q-31 28 -76 49 q-12 6 -115 -16 q-3 0 -177 -23 q0 108 14 169 q4 19 -12 29 q-21 15 -37 21 q117 48 168 55 q19 0 23 8 q4 12 -8 24 q-22 18 -68 38 q-16 10 -30 8 q-9 -3 -9 -15 q-1 -16 -16 -26 q-28 -22 -90 -53 q-79 -42 -198 -86 q-7 -10 0 -13 q16 -4 151 37 q12 4 27 7 q1 -1 3 -3 q4 -10 12 -21 q13 -25 14 -62 q1 -55 0 -124 q-4 1 -188 -21 q-67 -10 -168 -11 q-15 0 -16 -12 q0 -13 19 -28 q39 -30 89 -18 q45 13 167 32 q45 7 97 12 q-6 -387 -1 -427 Z" /><glyph glyph-name="" unicode="&#x5374;" d="M484 273 q52 -81 54 -83 q7 -3 15 4 q13 9 12 48 q0 48 -108 115 q-7 6 -11 -4 q-4 -12 3 -23 q12 -16 24 -38 q-82 -22 -169 -46 q-7 -3 -9 -1 q-1 3 4 9 q69 103 96 130 q13 15 4 23 q-10 10 -33 14 q25 9 168 29 q10 -1 19 12 q1 12 -22 21 q-33 24 -128 -10 q-3 0 -5 -1 q4 55 8 105 q114 30 117 32 q9 7 4 16 q-7 10 -35 17 q-27 6 -82 -15 q3 87 21 159 q3 10 -17 26 q-36 19 -60 23 q-16 4 -24 -5 q-7 -7 1 -23 q21 -30 22 -51 q4 -69 4 -145 q-99 -18 -125 -23 q-34 -7 -9 -22 q34 -19 107 -6 q12 3 28 6 q-1 -49 -3 -105 q-54 -12 -227 -40 q-28 -4 -6 -21 q34 -25 61 -18 q61 15 136 30 q0 -45 -4 -60 q-1 -1 -2 -4 q-36 -82 -101 -122 q-39 -21 -14 -61 q12 -19 25 -23 q9 -3 19 4 q48 40 242 127 ZM666 579 q81 28 139 39 q13 3 16 -1 q13 -18 7 -65 q-10 -132 -41 -190 q-13 -27 -36 -24 q-28 10 -53 22 q-22 9 -7 -14 q46 -45 68 -79 q24 -22 42 -1 q31 25 50 70 q22 51 29 204 q1 54 18 82 q10 13 5 22 q-9 10 -57 27 q-19 7 -37 -6 q-36 -24 -158 -50 q-31 21 -47 23 q-13 4 -30 -5 q-9 -9 -1 -20 q24 -57 26 -73 q-1 -1 0 -5 q4 -145 0 -374 q-3 -196 18 -226 q6 -7 14 -5 q15 9 22 72 q1 33 3 279 q-3 249 10 298 Z" /><glyph glyph-name="" unicode="&#x53bb;" d="M667 118 q66 -111 76 -117 q9 -3 19 5 q16 10 13 59 q0 58 -159 176 q-9 7 -14 -5 q-4 -13 5 -27 q22 -31 46 -69 q-135 -19 -275 -40 q-10 -1 -13 1 q-3 4 5 13 q115 153 160 191 q16 15 7 26 q-10 12 -40 20 q102 12 426 12 q22 -1 28 9 q6 13 -12 28 q-58 45 -99 36 q-118 -22 -318 -49 q6 85 10 167 q168 33 178 39 q10 9 5 18 q-7 13 -39 22 q-31 7 -65 -5 q-39 -12 -76 -23 q3 109 23 174 q3 12 -18 28 q-37 19 -64 24 q-18 4 -26 -6 q-7 -7 1 -24 q25 -36 25 -61 q4 -70 5 -148 q-75 -13 -157 -21 q-40 -4 -12 -24 q42 -27 105 -14 q31 6 65 12 q-1 -78 -4 -163 q-181 -19 -392 -42 q-22 -1 -6 -21 q16 -16 35 -22 q24 -6 41 -1 q132 34 280 49 q4 1 11 1 q-1 -6 1 -17 q6 -72 -117 -197 q-27 -21 -65 -43 q-45 -18 -27 -61 q1 -1 3 -6 q10 -22 26 -29 q9 -4 21 2 q114 66 368 121 q4 1 10 2 Z" /><glyph glyph-name="" unicode="&#x53d1;" d="M558 152 q144 -144 176 -151 q100 0 178 14 q37 6 35 16 q-3 12 -186 55 q-82 30 -174 101 q40 55 69 137 q10 37 32 56 q18 15 -1 32 q-22 19 -58 35 q-22 9 -47 -2 q-58 -34 -142 -50 q-15 -1 -25 -5 q33 61 58 120 q114 33 306 36 q25 -3 36 6 q7 7 0 20 q-7 13 -53 35 q-27 12 -92 -7 q-81 -13 -177 -40 q40 135 45 160 q4 31 22 61 q13 21 -8 34 q-30 21 -71 29 q-19 4 -28 -2 q-7 -7 0 -25 q55 -93 -21 -275 q-55 -13 -106 -32 q-16 -7 -20 -2 q-6 4 -1 17 q19 73 31 95 q9 13 -3 28 q-18 25 -49 41 q-13 7 -24 -1 q-7 -4 2 -24 q15 -31 8 -73 q-13 -61 -42 -88 q-15 -16 -9 -30 q9 -22 28 -42 q13 -13 33 2 q48 40 132 62 q-87 -184 -201 -300 q-49 -46 -113 -100 q-7 -7 -9 -13 q-1 -7 15 1 q184 82 300 285 q1 -1 6 -3 q30 -13 72 2 q48 13 94 26 q16 7 19 -12 q0 -67 -51 -157 q-34 30 -67 63 q-37 37 -73 37 q-18 1 -21 -5 q-1 -7 15 -17 q37 -21 123 -109 q-18 -21 -39 -41 q-67 -52 -239 -97 q-18 -3 -8 -13 q7 -7 40 -5 q112 10 177 37 q60 27 106 78 ZM673 728 q34 -28 69 -61 q13 -12 28 -12 q10 1 15 14 q4 13 -4 42 q-9 34 -112 63 q-15 4 -21 1 q-4 -4 -4 -16 q4 -10 29 -31 Z" /><glyph glyph-name="" unicode="&#x53e3;" d="M365 177 q7 0 18 1 q112 22 355 34 q13 1 16 12 q1 10 -35 37 q36 211 102 277 q24 25 3 51 q-22 18 -95 53 q-25 10 -55 -1 q-159 -54 -379 -70 q-28 19 -59 26 q-9 3 -15 -3 q-10 -7 2 -21 q58 -96 69 -325 q1 -72 46 -106 q1 -1 5 -3 q22 -6 22 31 q0 4 0 7 ZM360 223 q-33 183 -38 305 q9 1 23 5 q148 22 289 44 q37 7 51 -9 q22 -19 18 -63 q-19 -133 -49 -237 q-163 -33 -294 -45 Z" /><glyph glyph-name="" unicode="&#x53ef;" d="M331 349 q1 0 3 -1 q10 -3 25 1 q48 12 153 22 q12 1 12 11 q0 7 -26 24 q22 75 47 97 q25 28 0 46 q-22 13 -52 34 q-21 13 -63 -11 q-63 -24 -137 -36 q-13 4 -36 9 q-13 4 -16 -2 q-7 -6 2 -22 q27 -58 42 -154 q3 -28 19 -47 q18 -22 23 -7 q4 13 4 36 ZM328 381 q-15 96 -17 124 q9 1 20 3 q49 10 91 19 q28 6 35 -6 q7 -6 -1 -39 q-7 -34 -17 -73 q-61 -18 -111 -28 ZM578 106 q-22 7 -52 14 q-13 4 -14 -4 q1 -9 12 -20 q67 -61 110 -109 q13 -10 29 7 q48 63 44 152 q-12 318 1 495 q7 31 0 44 q-6 9 -22 19 q84 12 226 -1 q25 -3 31 7 q7 13 -5 26 q-31 28 -77 48 q-15 6 -42 -3 q-91 -21 -326 -50 q-337 -36 -350 -37 q-7 1 -14 0 q-15 0 -16 -12 q-1 -13 19 -28 q18 -13 50 -25 q12 -4 30 5 q45 15 194 40 q72 12 214 25 q9 -21 17 -123 q0 -141 -2 -422 q-1 -37 -13 -50 q-13 -7 -44 2 Z" /><glyph glyph-name="" unicode="&#x5408;" d="M506 683 q106 -139 241 -286 q25 -24 63 -21 q132 10 173 19 q12 4 14 10 q-1 9 -113 48 q-108 45 -143 69 q-100 76 -218 186 q12 19 21 25 q10 6 8 18 q-1 12 -16 27 q-36 36 -76 32 q-10 -1 -8 -17 q12 -108 -166 -302 q-48 -45 -98 -91 q-49 -39 -118 -94 q-10 -6 2 -10 q75 9 215 127 q93 84 219 260 ZM347 420 q-40 -7 -12 -25 q42 -27 105 -11 q73 13 151 29 q34 7 40 12 q10 9 4 18 q-7 13 -39 21 q-25 6 -113 -21 q-70 -16 -136 -23 ZM374 40 q7 0 15 1 q90 18 284 29 q12 1 14 11 q0 9 -27 28 q28 93 66 123 q21 22 4 43 q-18 15 -85 49 q-21 7 -44 -1 q-106 -37 -279 -56 q-13 6 -44 10 q-13 3 -17 -3 q-7 -7 3 -24 q36 -73 57 -194 q4 -36 25 -60 q19 -24 26 -6 q6 19 2 50 ZM368 79 q-22 112 -28 150 q252 42 264 36 q3 -1 7 -5 q12 -10 9 -32 q-9 -61 -22 -112 q-127 -27 -230 -37 Z" /><glyph glyph-name="" unicode="&#x540c;" d="M299 687 q7 0 15 2 q163 40 362 68 q27 6 40 -10 q16 -7 23 -80 q22 -243 14 -519 q0 -40 -15 -52 q-18 -13 -107 3 q-19 3 -16 -8 q1 -9 16 -14 q81 -49 123 -88 q25 -22 40 -18 q13 4 25 37 q16 52 12 127 q-27 379 -28 519 q-1 45 12 72 q13 25 1 38 q-12 16 -67 43 q-22 10 -44 5 q-162 -54 -423 -80 q-24 19 -50 29 q-10 1 -18 -7 q-4 -7 4 -19 q58 -159 8 -469 q-10 -51 -28 -104 q-10 -28 -5 -51 q9 -39 22 -53 q12 -16 24 -1 q28 33 40 180 q-6 12 10 326 q4 87 10 124 ZM384 586 q-33 -6 -9 -21 q39 -21 89 -10 q66 13 135 28 q31 7 36 11 q7 7 4 15 q-7 10 -33 18 q-28 4 -55 -6 q-36 -12 -74 -21 q-43 -10 -93 -14 ZM434 271 q6 0 14 1 q52 12 164 20 q10 1 12 9 q0 7 -24 23 q18 69 49 95 q15 16 2 32 q-72 52 -109 28 q-64 -21 -136 -38 q-10 6 -40 12 q-12 3 -15 -2 q-7 -6 1 -21 q25 -54 39 -142 q3 -27 18 -45 q16 -21 22 -6 q4 13 3 34 ZM552 328 q-67 -16 -122 -26 q-12 82 -13 110 q6 4 125 27 q15 4 21 -2 q9 -9 7 -27 q-7 -43 -16 -82 q-1 0 -2 0 Z" /><glyph glyph-name="" unicode="&#x540e;" d="M327 447 q36 -30 73 -17 q202 63 457 63 q1 0 3 0 q21 1 25 10 q4 13 -13 26 q-57 37 -94 27 q-132 -34 -446 -88 q-3 0 -2 -1 q7 52 14 114 q9 33 9 39 q145 36 243 81 q55 22 103 30 q21 1 25 10 q4 13 -9 27 q-25 19 -79 41 q-19 10 -35 9 q-9 -4 -10 -18 q0 -45 -244 -158 q-3 4 -8 6 q-51 30 -67 28 q-22 -3 -6 -27 q33 -69 -9 -287 q-15 -58 -48 -126 q-34 -69 -131 -151 q-16 -13 -20 -19 q-3 -7 10 -8 q39 -3 123 72 q102 102 136 317 ZM434 45 q9 0 18 1 q97 19 307 28 q13 1 15 12 q1 10 -36 37 q0 0 -1 0 q36 112 78 141 q21 22 4 44 q-18 15 -85 50 q-21 9 -46 0 q-120 -45 -302 -63 q-13 6 -39 11 q-13 4 -18 -2 q-7 -7 2 -25 q33 -76 49 -199 q1 -37 23 -63 q19 -25 25 -7 q4 13 6 35 ZM430 89 q-18 127 -24 168 q12 1 253 44 q30 7 41 -6 q12 -13 8 -39 q-15 -70 -33 -129 q-136 -27 -245 -38 Z" /><glyph glyph-name="" unicode="&#x542c;" d="M176 361 q9 9 158 28 q10 1 11 11 q0 7 -31 25 q16 96 42 126 q22 27 -2 41 q-21 10 -49 29 q-19 10 -39 -2 q-43 -30 -132 -47 q-10 4 -33 9 q-13 4 -16 -1 q-7 -6 1 -22 q30 -73 42 -190 q1 -36 20 -60 q16 -22 23 -7 q9 21 5 60 ZM171 396 q-16 118 -17 148 q13 6 89 22 q25 7 31 -4 q10 -7 2 -47 q-7 -43 -16 -94 q-49 -13 -89 -25 ZM658 -35 q6 -25 12 -34 q6 -7 13 -5 q18 12 21 67 q7 64 5 127 q-7 249 11 331 q3 18 -11 27 q-7 6 -14 8 q90 13 198 14 q19 1 24 10 q4 12 -12 24 q-57 39 -104 21 q-93 -24 -313 -63 q7 127 12 131 q108 28 184 66 q49 21 90 29 q18 1 22 10 q4 12 -10 23 q-22 16 -70 34 q-16 7 -31 6 q-7 -4 -8 -16 q0 -36 -183 -133 q-3 4 -10 8 q-51 25 -67 23 q-21 -4 -4 -27 q42 -72 7 -299 q-12 -55 -38 -119 q-27 -63 -122 -159 q-15 -13 -19 -20 q-1 -7 11 -7 q39 0 117 80 q96 106 116 331 q0 4 1 7 q21 -12 52 -5 q43 13 96 21 q15 -19 20 -108 q1 -103 0 -251 q-1 -114 4 -152 Z" /><glyph glyph-name="" unicode="&#x5438;" d="M179 362 q6 0 13 2 q45 13 143 27 q10 1 10 10 q0 7 -29 23 q18 100 45 132 q22 25 -1 40 q-19 10 -47 27 q-19 10 -37 -2 q-39 -27 -125 -47 q-10 7 -46 16 q-13 4 -16 -2 q-7 -6 1 -22 q30 -76 42 -199 q1 -37 20 -63 q16 -22 23 -7 q9 22 4 65 ZM175 394 q-15 117 -17 152 q0 1 2 1 q48 13 89 24 q28 7 36 -3 q9 -7 0 -49 q-7 -46 -19 -99 q-52 -16 -91 -26 ZM645 136 q34 -45 79 -91 q18 -22 48 -24 q93 -10 170 -5 q40 1 37 13 q-1 6 -101 46 q-147 60 -189 102 q73 84 99 190 q13 45 38 65 q4 4 4 13 q-3 24 -58 50 q-21 7 -47 -4 q-13 -7 -57 -17 q-31 -7 -6 43 q81 157 101 170 q19 10 23 21 q4 13 -41 38 q-51 27 -80 8 q-96 -45 -246 -66 q-3 1 -6 0 q-24 -3 -22 -14 q1 -10 34 -20 q15 -4 37 -2 q9 -31 -3 -89 q-3 -9 -5 -20 q-36 -153 -97 -260 q-60 -100 -146 -187 q-6 -4 -9 -11 q-4 -10 6 -9 q15 -1 60 37 q109 84 184 255 q39 -28 160 -191 q-96 -87 -215 -132 q-27 -7 -25 -12 q1 -13 72 7 q114 30 201 96 ZM536 341 q-34 45 -71 48 q-3 1 -4 0 q18 46 60 176 q4 16 12 32 q12 13 7 26 q-13 19 -39 37 q24 10 151 45 q18 4 22 -5 q7 -18 -52 -160 q-18 -28 -35 -46 q-16 -18 -8 -34 q7 -16 20 -25 q9 -7 17 -6 q7 1 21 9 q13 4 51 9 q31 1 42 -11 q10 -12 -3 -53 q-21 -93 -79 -167 q-57 55 -112 125 Z" /><glyph glyph-name="" unicode="&#x54ea;" d="M136 419 q78 19 128 28 q10 1 10 10 q0 6 -17 15 q13 96 38 126 q19 24 -3 35 q-57 28 -62 27 q-7 -1 -13 -6 q-36 -25 -111 -44 q-10 6 -36 11 q-12 4 -15 -1 q-7 -4 1 -21 q25 -64 36 -170 q1 -31 17 -53 q16 -22 22 -7 q7 18 5 50 ZM200 476 q-37 -13 -67 -25 q-13 109 -13 135 q42 13 76 23 q24 7 29 -3 q9 -6 -11 -126 q-7 -1 -14 -4 ZM356 435 q-33 -129 -126 -272 q-4 -6 -6 -11 q-3 -10 7 -7 q37 7 108 129 q6 13 13 26 q34 73 50 144 q30 9 65 17 q19 6 21 8 q7 7 3 14 q-7 9 -30 13 q-25 4 -48 -8 q-1 0 -2 -1 q7 40 14 80 q19 7 44 15 q18 6 21 9 q6 7 1 13 q-6 7 -28 10 q-19 1 -34 -5 q3 37 11 64 q7 12 2 24 q-9 10 -23 18 q79 25 97 16 q13 -9 14 -51 q6 -291 -35 -386 q-9 -15 -28 -9 q-55 9 -53 13 q-28 7 -6 -17 q31 -33 55 -68 q22 -25 38 -13 q84 54 80 330 q-3 156 15 182 q16 22 3 32 q-22 19 -56 29 q-16 7 -106 -24 q-42 -12 -108 -22 q-19 1 -7 -11 q15 -15 51 -12 q16 -37 6 -116 q-1 0 -3 -1 q-25 -7 -54 -14 q-25 -7 -5 -18 q27 -9 59 -4 q-4 -40 -12 -80 q-25 -4 -51 -8 q-28 -7 -7 -19 q22 -12 50 -9 ZM666 -7 q4 -25 12 -34 q6 -7 13 -5 q16 10 20 67 q9 94 5 185 q-3 52 -3 405 q0 21 12 77 q75 39 93 30 q12 -7 4 -31 q-46 -138 -46 -139 q0 -13 22 -19 q87 -64 95 -148 q0 -24 -12 -35 q-12 -9 -34 -5 q-34 7 -64 10 q-9 1 -8 -6 q1 -7 17 -19 q63 -45 74 -67 q7 -15 20 -16 q13 -1 28 10 q39 46 41 102 q4 84 -112 185 q-42 19 18 99 q16 40 55 63 q30 19 2 38 q-40 31 -65 41 q-19 6 -35 -6 q-33 -28 -114 -56 q-25 18 -38 19 q-13 4 -28 -5 q-9 -7 -1 -18 q27 -48 28 -88 q3 -163 -3 -421 q-1 -160 4 -213 Z" /><glyph glyph-name="" unicode="&#x559c;" d="M483 640 q-61 -7 -123 -17 q-27 -3 -6 -20 q34 -24 58 -17 q105 21 235 38 q10 -1 18 11 q1 10 -21 21 q-28 21 -115 -5 q-3 0 -4 -1 q3 34 7 67 q67 10 142 19 q72 12 83 21 q9 7 5 15 q-6 13 -34 22 q-28 7 -58 -2 q-67 -18 -135 -32 q3 18 7 42 q4 10 6 17 q3 10 -16 24 q-31 16 -54 20 q-15 3 -22 -5 q-7 -7 1 -21 q15 -21 20 -87 q-90 -12 -189 -15 q-36 -4 -12 -22 q33 -24 115 -14 q43 6 89 11 q1 -33 3 -70 ZM328 332 q45 -57 59 -60 q9 -1 14 9 q6 12 2 36 q-1 16 -24 31 q-52 31 -67 27 q-4 -3 -5 -14 q1 -9 21 -29 ZM504 232 q270 21 340 15 q99 -3 101 -3 q1 1 3 3 q7 13 -5 25 q-28 28 -72 48 q-15 6 -41 -2 q-76 -15 -230 -36 q16 18 48 62 q9 13 24 28 q16 10 8 21 q-7 18 -32 36 q10 3 24 3 q10 1 11 9 q0 7 -19 20 q21 40 45 54 q16 16 3 34 q-16 13 -63 38 q-16 7 -37 0 q-109 -39 -255 -57 q-12 4 -48 9 q-12 1 -14 -4 q-6 -7 4 -21 q25 -37 46 -102 q4 -19 19 -31 q19 -19 22 -3 q1 9 1 21 q6 -1 13 0 q70 16 210 27 q0 0 1 -1 q6 -27 -38 -127 q-6 -10 -9 -20 q-186 -16 -280 -30 q-75 -10 -186 -12 q-13 0 -15 -11 q-1 -13 18 -27 q16 -13 48 -25 q10 -4 28 4 q19 7 97 20 q103 22 230 35 ZM612 470 q-127 -28 -230 -41 q-12 48 -16 69 q9 1 21 5 q102 19 199 37 q25 6 36 -5 q7 -7 -7 -65 q-1 1 -3 0 ZM397 -16 q42 15 296 28 q12 1 14 10 q0 9 -28 28 q27 69 57 88 q19 19 3 38 q-16 15 -71 42 q-19 9 -42 1 q-111 -42 -274 -59 q-12 4 -41 8 q-13 3 -16 -3 q-7 -7 3 -23 q30 -52 51 -140 q4 -25 21 -43 q21 -22 25 -5 q4 12 2 30 ZM392 21 q-16 76 -20 104 q10 1 25 6 q103 18 203 36 q27 6 37 -6 q7 -7 6 -25 q-9 -43 -19 -80 q-129 -25 -232 -35 Z" /><glyph glyph-name="" unicode="&#x56de;" d="M441 318 q7 -1 18 1 q51 10 160 15 q10 1 12 10 q0 7 -17 19 q22 72 46 92 q25 27 2 43 q-21 13 -49 35 q-19 13 -41 1 q-48 -24 -156 -39 q-10 7 -47 13 q-10 3 -14 -2 q-6 -6 2 -21 q25 -51 42 -136 q3 -25 18 -42 q16 -21 21 -6 q3 7 3 17 ZM555 374 q-64 -15 -116 -23 q0 3 0 5 q-13 76 -17 107 q45 7 116 17 q31 4 37 -8 q7 -6 0 -35 q-7 -30 -14 -63 q-3 1 -6 0 ZM201 650 q-24 13 -48 20 q-10 4 -16 -3 q-10 -7 2 -22 q72 -129 69 -416 q1 -75 48 -116 q1 0 4 -2 q22 -7 24 33 q0 3 0 5 q9 -1 20 0 q127 22 396 30 q12 -28 34 -73 q10 -19 21 -18 q18 3 28 32 q49 100 54 235 q9 84 17 181 q4 60 32 96 q21 25 5 41 q-27 25 -84 50 q-24 12 -63 -3 q-118 -36 -252 -54 q-118 -13 -291 -16 ZM273 234 q-30 264 -31 365 q18 9 464 60 q51 7 70 -17 q13 -22 13 -46 q-1 -178 -37 -351 q-4 -31 -16 -33 q-3 -1 -9 0 q-33 33 -102 17 q-190 -30 -344 -39 q-3 22 -8 44 Z" /><glyph glyph-name="" unicode="&#x5728;" d="M273 306 q0 -126 -25 -227 q-12 -51 22 -90 q1 -3 4 -5 q16 -16 28 10 q15 40 14 85 q1 223 8 272 q3 13 3 23 q58 78 121 209 q106 22 220 41 q75 16 86 25 q10 9 5 18 q-7 13 -39 22 q-31 7 -65 -5 q-85 -28 -177 -49 q-4 -1 -7 -2 q49 103 79 136 q16 16 10 30 q-9 31 -64 54 q-16 9 -35 2 q-13 -9 -4 -22 q18 -25 17 -52 q0 -34 -59 -158 q-76 -12 -159 -20 q-40 -4 -12 -24 q40 -25 118 -11 q13 3 29 4 q-45 -88 -94 -158 q-12 18 -35 29 q-10 1 -13 -5 q-6 -12 17 -66 q-4 -4 -7 -9 q-67 -82 -212 -201 q-13 -15 -1 -18 q6 -3 20 5 q112 54 207 157 ZM571 128 q-94 -10 -201 -24 q-22 -3 -6 -21 q15 -15 34 -21 q22 -6 40 -1 q129 33 404 32 q13 0 30 -1 q22 0 27 9 q6 13 -12 28 q-63 48 -124 28 q-61 -9 -149 -24 q4 93 9 179 q48 12 98 21 q46 12 54 18 q9 7 4 17 q-7 12 -37 19 q-24 6 -117 -24 q3 60 18 123 q4 12 -17 26 q-36 19 -60 23 q-16 3 -24 -6 q-7 -7 1 -22 q24 -34 24 -58 q3 -49 5 -101 q-1 1 -3 0 q-64 -15 -139 -22 q-37 -7 -11 -24 q45 -24 103 -9 q22 6 51 9 q1 -82 -2 -174 Z" /><glyph glyph-name="" unicode="&#x5730;" d="M242 211 q-52 -21 -108 -44 q-16 -7 -46 -10 q-13 -3 -14 -14 q-1 -13 10 -21 q25 -13 62 -29 q10 -1 22 9 q27 27 178 121 q21 13 36 27 q12 10 11 19 q-6 4 -18 1 q-43 -19 -89 -41 q4 105 6 202 q84 30 90 35 q7 9 2 16 q-7 10 -35 13 q-28 1 -54 -12 q-1 0 -1 -1 q0 117 21 202 q3 12 -19 27 q-37 19 -64 23 q-18 4 -26 -6 q-7 -7 1 -24 q30 -42 30 -70 q4 -84 7 -175 q-90 -30 -120 -36 q-33 -10 -7 -22 q34 -12 107 8 q9 3 21 6 q0 -97 -3 -204 ZM973 161 q-15 40 -29 157 q0 16 -7 20 q-6 3 -10 -14 q-22 -123 -42 -162 q-16 -27 -74 -42 q-129 -34 -251 20 q-48 25 -63 57 q-21 37 -24 103 q-1 33 0 69 q40 24 107 59 q-15 -165 -6 -195 q6 -13 16 -7 q22 24 27 105 q4 64 10 123 q48 28 111 60 q19 7 24 -4 q10 -16 -27 -178 q-4 -43 -35 -32 q-19 6 -39 10 q-13 1 -10 -6 q6 -10 68 -64 q22 -24 38 -3 q34 43 41 106 q10 63 20 127 q7 34 35 65 q10 16 -5 27 q-19 10 -68 17 q-19 3 -31 -10 q-25 -24 -119 -80 q13 210 28 264 q10 21 -3 34 q-16 16 -46 32 q-24 10 -49 1 q-13 -9 2 -26 q24 -52 27 -98 q4 -99 -6 -233 q-42 -19 -86 -42 q-12 -4 -22 -10 q3 61 12 128 q4 18 -8 27 q-13 13 -37 20 q-13 4 -21 -1 q-7 -4 -1 -22 q15 -37 13 -75 q-1 -52 -1 -97 q-55 -22 -91 -36 q-13 -3 -13 -12 q0 -7 41 -17 q25 -7 46 8 q4 4 17 11 q1 -124 19 -169 q9 -37 42 -68 q111 -88 318 -59 q25 6 51 13 q54 18 104 59 q19 15 7 40 Z" /><glyph glyph-name="" unicode="&#x578b;" d="M442 561 q0 -25 -13 -120 q-9 -39 19 -71 q9 -10 18 0 q18 30 19 102 q-3 34 -1 94 q45 7 96 11 q16 1 17 9 q1 12 -15 21 q-24 12 -97 -2 q0 40 6 78 q7 21 -12 31 q-9 6 -17 9 q42 7 77 13 q10 -1 18 11 q1 10 -20 20 q-31 19 -115 -7 q-15 -3 -29 -7 q-28 -6 -170 -30 q-27 -4 -5 -20 q30 -21 57 -17 q24 -37 19 -116 q-129 -18 -192 -22 q-12 -1 -15 -8 q-4 -10 10 -21 q33 -25 85 -14 q58 18 109 28 q-12 -147 -146 -251 q-10 -10 1 -11 q52 6 114 76 q34 36 49 74 q6 18 13 34 q15 42 18 88 q21 7 102 18 ZM424 711 q15 -37 17 -114 q-55 -10 -98 -19 q6 66 14 86 q6 16 -9 23 q-12 7 -21 10 q43 10 95 20 q1 -1 2 -6 ZM610 684 q24 -54 8 -186 q-6 -25 19 -56 q9 -10 17 0 q15 27 15 115 q0 67 5 101 q6 19 -12 30 q-13 9 -29 16 q-10 4 -19 -1 q-7 -6 -4 -19 ZM775 757 q3 -21 -1 -342 q0 -13 -8 -18 q-1 0 -63 3 q-31 10 -28 1 q1 -7 20 -20 q55 -43 70 -68 q16 -28 30 -30 q13 -1 26 31 q16 42 13 109 q-24 259 5 358 q16 28 -35 48 q-31 16 -49 11 q-16 -6 -1 -27 q19 -25 21 -56 ZM489 65 q-139 -13 -302 -29 q-24 -1 -7 -21 q15 -16 35 -22 q22 -7 41 -3 q213 52 549 43 q28 -1 53 -2 q22 -1 28 9 q7 13 -11 28 q-57 45 -99 37 q-93 -16 -248 -36 q6 70 12 134 q54 10 111 17 q49 9 58 15 q10 7 5 17 q-6 13 -35 21 q-30 9 -135 -21 q0 3 1 5 q7 43 14 62 q3 10 -15 23 q-31 18 -54 22 q-15 3 -22 -5 q-7 -7 0 -20 q18 -25 18 -41 q1 -27 3 -57 q-66 -9 -141 -12 q-37 -4 -12 -23 q45 -28 99 -17 q27 4 55 7 q0 -61 -1 -131 Z" /><glyph glyph-name="" unicode="&#x591a;" d="M352 625 q3 -7 21 -26 q18 -19 38 -44 q9 -10 21 -12 q9 0 13 10 q4 10 1 34 q-3 16 -25 29 q-21 9 -50 20 q48 33 106 90 q-1 0 0 -1 q25 -27 116 -10 q19 1 25 -7 q3 -7 -13 -27 q-52 -76 -141 -154 q-75 -64 -217 -150 q-16 -10 -1 -13 q90 0 289 160 q3 4 8 7 q61 52 123 119 q24 27 63 51 q18 9 13 20 q-1 10 -61 43 q-15 12 -70 -9 q-99 -12 -118 -13 q19 19 39 37 q13 9 3 27 q-33 42 -59 44 q-10 1 -12 -14 q-15 -108 -156 -198 q-34 -21 -52 -35 q-12 -13 4 -11 q18 0 92 33 ZM375 270 q0 -3 85 -95 q10 -13 25 -13 q10 -1 16 11 q6 13 0 41 q-6 33 -101 70 q99 75 124 97 q40 -21 122 7 q25 4 35 -3 q7 -7 -23 -62 q-129 -259 -465 -370 q-12 -3 -11 -9 q0 -6 9 -6 q28 -4 92 10 q61 13 127 48 q79 40 159 115 q79 73 165 200 q22 30 54 47 q19 7 20 18 q1 15 -29 38 q-37 31 -54 33 q-13 0 -27 -8 q-57 -15 -146 -30 q36 37 54 52 q10 10 8 20 q-1 12 -25 21 q-25 10 -38 9 q-7 -1 -10 -13 q-30 -93 -256 -247 q-21 -13 5 -11 q34 3 85 30 Z" /><glyph glyph-name="" unicode="&#x591f;" d="M334 118 q-13 -4 -85 9 q-10 3 -9 -3 q-1 -4 11 -12 q43 -39 62 -68 q10 -18 23 -16 q19 -1 38 19 q67 55 86 199 q13 97 19 243 q0 34 21 59 q13 15 11 23 q-1 7 -21 20 q-28 19 -64 28 q-22 6 -83 -18 q-4 0 -9 -3 q-57 -18 -116 -36 q42 57 85 143 q16 37 32 55 q9 12 2 24 q-4 12 -35 31 q-27 15 -45 12 q-18 -4 -8 -24 q13 -22 8 -43 q-19 -70 -52 -137 q-31 -64 -78 -137 q-7 -10 -10 -17 q-1 -10 11 -7 q21 6 75 78 q96 13 193 27 q7 1 10 -2 q21 -39 3 -264 q-15 -96 -41 -148 q-15 -33 -34 -35 ZM167 266 q6 0 14 2 q37 10 118 23 q10 1 10 10 q0 7 -22 18 q18 73 39 95 q22 24 0 37 q-19 10 -44 27 q-16 9 -61 -15 q-51 -18 -88 -27 q-10 4 -30 9 q-10 3 -14 -1 q-6 -6 1 -20 q24 -57 35 -147 q1 -28 17 -46 q15 -21 20 -6 q6 15 5 41 ZM236 322 q-42 -15 -73 -24 q-13 90 -13 113 q4 1 11 3 q37 9 67 16 q21 4 26 -4 q7 -6 0 -36 q-7 -31 -14 -67 q-3 0 -4 -1 ZM589 573 q3 -4 10 -13 q43 -57 51 -58 q7 -1 12 7 q4 9 3 28 q-3 21 -60 52 q7 9 16 17 q19 21 39 46 q10 -9 39 -3 q48 15 52 8 q3 -12 -15 -52 q-16 -45 -67 -103 q-49 -64 -131 -123 q-24 -13 -4 -13 q99 0 237 190 q42 76 63 90 q12 10 6 22 q-4 10 -56 33 q-12 6 -34 -5 q-24 -12 -74 -24 q36 54 53 69 q9 7 5 20 q-3 10 -27 31 q-22 16 -38 17 q-16 -1 -9 -20 q12 -36 -54 -138 q-31 -49 -76 -101 q-9 -9 -10 -14 q-4 -9 8 -7 q7 1 61 44 ZM617 268 q3 -6 12 -16 q25 -31 52 -66 q7 -10 19 -13 q7 -1 14 8 q4 10 3 32 q-1 21 -28 41 q-25 16 -54 30 q31 28 57 55 q27 -12 64 0 q43 18 58 9 q7 -6 -16 -63 q-75 -195 -299 -300 q-10 -4 -9 -9 q1 -4 8 -4 q126 0 259 148 q3 4 7 8 q49 58 99 155 q18 27 44 44 q16 7 17 17 q0 13 -29 31 q-34 25 -49 25 q-10 0 -23 -8 q-93 -24 -109 -27 q28 34 42 48 q9 10 7 19 q-3 12 -27 18 q-25 7 -36 5 q-7 -1 -8 -13 q-18 -79 -180 -219 q-19 -13 6 -10 q37 6 99 55 Z" /><glyph glyph-name="" unicode="&#x592a;" d="M494 419 q22 -46 78 -141 q76 -130 134 -205 q27 -37 56 -39 q90 -6 167 -14 q34 -3 35 5 q1 9 -33 26 q-178 84 -199 105 q-81 78 -197 257 q-19 28 -33 53 q1 13 5 26 q100 15 259 17 q69 0 75 11 q6 13 -13 28 q-60 40 -101 32 q-81 -19 -214 -44 q0 114 25 198 q9 48 9 48 q-1 3 -3 4 q-19 19 -59 36 q-24 10 -43 5 q-22 -7 -5 -28 q31 -33 30 -67 q-3 -115 -14 -206 q-115 -16 -248 -37 q-22 -3 -5 -22 q16 -15 36 -20 q24 -6 41 0 q79 24 170 36 q-33 -186 -95 -279 q-69 -88 -208 -171 q-15 -6 -18 -10 q-4 -7 13 -9 q48 -3 163 71 q61 48 87 77 q6 -7 19 -21 q31 -33 66 -73 q10 -13 26 -15 q10 0 17 12 q6 13 1 43 q-4 24 -37 46 q-34 18 -72 34 q51 81 85 231 Z" /><glyph glyph-name="" unicode="&#x597d;" d="M294 233 q-7 -7 -13 -16 q-31 -37 -85 -74 q-13 -9 -31 -19 q-16 -10 -32 -20 q-13 -9 -2 -12 q81 -6 196 107 q1 1 3 3 q31 -27 69 -68 q16 -15 25 -16 q9 0 15 10 q7 10 3 42 q-7 36 -81 77 q45 75 60 138 q28 103 42 125 q10 16 -5 27 q-42 39 -71 32 q-13 -4 -9 -19 q9 -19 9 -43 q-46 -6 -94 -15 q24 76 44 152 q10 46 29 71 q13 22 7 35 q-13 19 -60 47 q-19 13 -37 4 q-13 -7 -3 -23 q30 -45 -26 -292 q-64 -7 -132 -18 q-21 -3 -54 3 q-13 0 -16 -9 q-4 -12 4 -21 q19 -19 47 -41 q10 -4 22 2 q72 34 118 40 q-18 -69 -41 -106 q-10 -22 11 -40 q48 -28 88 -63 ZM382 455 q-7 -79 -63 -185 q-27 16 -61 34 q-21 10 -18 31 q21 58 41 118 q39 10 81 21 q10 4 23 7 q-1 -12 -3 -26 ZM726 391 q57 6 221 6 q19 1 24 9 q6 10 -11 24 q-51 37 -112 24 q-55 -9 -131 -24 q-15 67 -46 91 q117 114 151 127 q21 7 13 24 q-4 16 -75 53 q-21 10 -44 0 q-55 -22 -141 -49 q-22 -7 -77 -7 q-25 0 -16 -21 q9 -13 29 -25 q33 -18 67 4 q19 9 113 49 q15 6 28 -3 q13 -9 7 -24 q-33 -54 -71 -118 q-7 4 -15 7 q-22 9 -32 2 q-13 -7 0 -21 q37 -28 45 -75 q3 -10 6 -23 q-97 -12 -207 -28 q-21 -1 -5 -18 q13 -13 31 -18 q19 -6 36 -1 q72 19 154 28 q33 -180 -10 -281 q-15 -27 -51 -20 q-31 6 -59 11 q-12 3 -6 -9 q4 -7 22 -20 q40 -34 54 -60 q10 -19 27 -16 q15 1 42 28 q88 90 39 374 Z" /><glyph glyph-name="" unicode="&#x5982;" d="M447 499 q-49 -10 -103 -21 q25 84 48 168 q12 49 32 74 q13 22 6 36 q-13 19 -62 50 q-21 13 -38 5 q-13 -7 -4 -25 q33 -51 -30 -317 q-75 -12 -152 -26 q-25 -4 -63 0 q-13 1 -17 -10 q-4 -13 5 -23 q21 -19 52 -43 q10 -4 24 3 q70 39 139 52 q-4 -13 -7 -28 q-13 -51 -38 -89 q-10 -25 11 -43 q52 -25 96 -60 q-64 -81 -150 -121 q-18 -10 -35 -21 q-13 -7 -1 -12 q13 -1 51 9 q60 19 107 55 q40 28 67 60 q40 -31 93 -80 q18 -16 27 -17 q10 1 15 12 q7 12 1 44 q-7 28 -30 43 q-25 16 -75 43 q45 78 62 134 q31 108 48 132 q12 18 -4 29 q-42 42 -73 35 q-15 -3 -9 -19 q4 -13 7 -29 ZM436 464 q4 1 10 3 q-24 -141 -74 -227 q-31 16 -68 34 q-21 10 -19 30 q24 64 45 131 q52 15 106 29 ZM653 206 q7 0 17 2 q58 13 185 25 q12 1 13 12 q0 9 -29 27 q24 126 66 167 q18 22 0 40 q-84 58 -138 26 q-66 -27 -164 -49 q-12 4 -35 9 q-13 4 -17 -1 q-7 -7 2 -24 q31 -76 48 -198 q3 -37 22 -61 q19 -24 24 -8 q4 13 6 33 ZM780 276 q-70 -19 -130 -31 q-7 21 -26 178 q13 3 28 8 q64 13 124 28 q16 4 23 -2 q13 -12 11 -39 q-10 -78 -25 -141 q-4 0 -5 -1 Z" /><glyph glyph-name="" unicode="&#x5b58;" d="M273 330 q0 -121 -27 -223 q-10 -45 24 -96 q1 0 3 -3 q18 -16 30 11 q15 40 14 87 q4 220 12 270 q4 18 2 27 q72 103 149 263 q93 19 190 35 q73 15 84 24 q10 9 5 18 q-7 13 -38 22 q-33 7 -66 -4 q-73 -24 -151 -43 q33 78 46 91 q7 7 4 20 q-3 10 -20 23 q-45 30 -80 19 q-10 -4 -5 -18 q13 -48 -18 -150 q-81 -13 -167 -20 q-40 -4 -12 -24 q45 -27 131 -10 q13 3 30 5 q-54 -124 -114 -210 q-7 15 -34 27 q-10 1 -14 -5 q-6 -12 16 -65 q-61 -78 -191 -219 q-9 -7 4 -9 q43 13 160 122 q3 6 33 35 ZM688 300 q109 12 201 12 q19 1 24 10 q4 12 -12 24 q-60 40 -118 17 q-45 -9 -103 -23 q-12 49 -31 72 q99 90 137 103 q19 7 13 24 q-3 16 -70 51 q-19 10 -42 0 q-55 -22 -141 -48 q-22 -7 -76 -7 q-24 1 -15 -20 q7 -12 27 -23 q31 -16 65 4 q19 7 116 48 q13 6 25 -2 q13 -7 7 -21 q-28 -43 -62 -95 q-12 7 -26 13 q-21 7 -31 1 q-13 -7 0 -20 q36 -27 44 -72 q1 -9 5 -19 q-4 0 -7 -1 q-109 -19 -239 -42 q-19 -3 -4 -19 q13 -13 31 -17 q21 -4 36 1 q105 33 191 41 q21 -150 -11 -228 q-15 -21 -43 -12 q-33 10 -63 21 q-10 4 -7 -7 q4 -9 22 -23 q39 -39 50 -67 q9 -18 25 -17 q13 1 42 26 q75 72 41 311 q-1 3 -1 4 Z" /><glyph glyph-name="" unicode="&#x5b8c;" d="M468 799 q34 -22 69 -50 q18 -13 35 -10 q13 1 16 17 q4 18 -10 50 q-16 34 -121 47 q-19 1 -25 -2 q-6 -4 -2 -19 q6 -13 38 -33 ZM289 624 q27 -19 65 -8 q108 37 319 64 q45 6 60 3 q16 -9 14 -16 q-15 -43 -32 -89 q0 0 2 -1 q7 -4 24 7 q55 36 100 47 q37 10 37 19 q-1 10 -75 65 q-25 21 -121 -2 q-195 -30 -390 -62 q-16 33 -28 40 q-21 15 -22 -13 q7 -42 -44 -95 q-30 -30 5 -92 q16 -28 37 3 q16 25 27 61 q12 43 22 69 ZM371 509 q-39 -10 -9 -26 q51 -21 106 -2 q142 40 149 44 q9 10 3 19 q-9 12 -40 17 q-33 4 -64 -12 q-31 -12 -64 -23 q-37 -10 -81 -17 ZM948 69 q-19 55 -29 148 q-1 16 -10 21 q-7 4 -11 -15 q-13 -117 -31 -138 q-31 -34 -159 -35 q-70 1 -100 13 q-25 13 -32 32 q-19 67 5 162 q4 21 11 33 q19 45 -47 75 q24 7 159 25 q12 -1 21 13 q1 13 -24 24 q-37 21 -124 -6 q-130 -31 -289 -57 q-15 -1 -28 -5 q-31 -4 -7 -23 q34 -25 79 -16 q21 6 47 10 q-12 -150 -257 -289 q-7 -6 -2 -10 q7 -4 17 -1 q129 30 196 108 q40 39 83 110 q13 21 31 40 q9 7 5 18 q-4 10 -30 31 q-1 1 -3 1 q42 10 90 19 q21 -45 17 -101 q-7 -162 19 -203 q28 -34 106 -47 q61 -10 158 -6 q87 4 121 22 q30 16 18 47 Z" /><glyph glyph-name="" unicode="&#x5b9e;" d="M309 361 q30 -21 63 -46 q13 -10 28 -9 q10 1 13 14 q3 13 -8 40 q-7 19 -39 31 q-76 18 -86 12 q-4 -4 -2 -16 q4 -10 31 -26 ZM346 507 q61 -61 88 -60 q13 0 17 19 q0 13 -11 31 q-21 30 -92 36 q-10 1 -9 -10 q-1 -9 7 -16 ZM498 246 q-46 -132 -197 -211 q-45 -21 -105 -46 q-13 -4 -17 -7 q-6 -6 10 -10 q18 -3 85 14 q49 10 120 47 q121 64 161 220 q102 10 241 11 q72 -3 80 9 q6 13 -12 28 q-57 42 -97 31 q-79 -16 -201 -38 q9 45 26 158 q4 34 19 74 q7 12 -2 20 q-52 52 -95 42 q-21 -7 -5 -26 q28 -33 26 -64 q-6 -138 -27 -214 q-3 1 -6 0 q-148 -21 -325 -44 q-22 -3 -5 -21 q15 -15 34 -20 q22 -6 40 -1 q129 37 252 48 ZM607 124 q61 -52 135 -130 q18 -21 34 -25 q9 -1 17 10 q13 13 -2 60 q-15 61 -184 118 q-10 4 -12 -8 q0 -15 12 -25 ZM474 789 q28 -24 59 -52 q15 -13 32 -12 q10 1 16 15 q4 16 -6 47 q-12 31 -108 52 q-16 3 -23 0 q-6 -4 -3 -18 q4 -10 33 -32 ZM279 639 q-9 18 -18 25 q-19 16 -22 -11 q4 -27 -12 -52 q-16 -19 -41 -40 q-10 -12 -8 -33 q4 -31 13 -49 q15 -28 36 0 q3 6 55 122 q1 1 2 4 q18 -9 69 3 q130 37 312 54 q37 4 52 2 q18 -13 15 -21 q0 -3 -28 -80 q-6 -15 1 -18 q7 -4 24 9 q52 43 99 59 q37 15 35 23 q-1 10 -75 61 q-25 16 -101 1 q-129 -16 -310 -46 q-49 -7 -98 -13 Z" /><glyph glyph-name="" unicode="&#x5bb9;" d="M441 821 q54 -54 94 -69 q16 -1 24 12 q4 13 1 31 q-13 42 -82 59 q-39 12 -53 6 q-7 -1 -3 -14 q3 -12 19 -25 ZM263 634 q27 -16 64 -6 q103 34 320 61 q45 6 59 3 q19 -10 17 -19 q-13 -42 -28 -87 q0 0 2 -1 q7 -4 24 8 q54 36 98 48 q36 10 35 19 q-1 10 -75 65 q-24 18 -102 2 q-108 -13 -311 -49 q-52 -9 -102 -14 q-12 24 -23 32 q-19 16 -22 -12 q4 -33 -41 -88 q-45 -37 -11 -101 q15 -28 36 1 q12 21 60 138 ZM349 571 q4 -45 -58 -109 q-16 -19 -61 -56 q-7 -4 1 -7 q60 0 172 119 q6 6 9 8 q7 4 6 13 q-4 24 -36 37 q-16 7 -26 7 q-7 -1 -7 -12 ZM560 546 q54 -31 119 -82 q18 -15 32 -16 q9 0 13 11 q9 13 -10 51 q-12 31 -86 51 q-46 10 -72 13 q-9 4 -9 -8 q1 -12 13 -20 ZM387 8 q10 0 19 1 q79 15 252 23 q10 1 13 10 q0 9 -30 30 q27 81 57 99 q18 19 3 39 q-18 15 -72 42 q-19 9 -42 0 q-82 -30 -245 -49 q-10 4 -37 9 q18 16 39 32 q60 52 155 163 q0 1 1 2 q244 -226 295 -233 q79 0 164 24 q19 4 20 9 q1 7 -14 12 q-55 16 -121 32 q-144 37 -317 168 q-6 4 -9 6 q1 1 2 1 q7 4 8 14 q0 10 -11 25 q-31 39 -62 34 q-10 -1 -9 -14 q4 -90 -172 -244 q-7 -4 -14 -11 q-52 -43 -177 -120 q-10 -4 1 -9 q66 0 201 93 q1 -4 4 -9 q31 -61 49 -164 q3 -31 21 -51 q19 -22 24 -6 q6 16 4 42 ZM381 44 q-16 94 -19 125 q31 3 203 31 q22 4 31 -6 q9 -7 8 -24 q-7 -52 -17 -94 q-115 -22 -206 -32 Z" /><glyph glyph-name="" unicode="&#x5bc2;" d="M479 791 q27 -22 54 -51 q15 -13 31 -14 q10 1 17 15 q4 15 -4 46 q-6 21 -37 35 q-73 28 -88 21 q-6 -4 -4 -17 q4 -12 31 -35 ZM268 611 q18 -6 75 7 q118 34 319 53 q40 4 55 2 q13 -15 10 -22 q-13 -45 -28 -93 q0 0 2 -1 q9 -4 26 9 q58 39 105 52 q39 12 38 21 q-1 10 -80 65 q-24 18 -106 2 q-142 -18 -322 -46 q-45 -6 -89 -12 q0 1 0 1 q-13 25 -25 35 q-19 16 -22 -12 q4 -27 -12 -54 q-18 -19 -42 -41 q-10 -13 -7 -35 q4 -33 14 -51 q16 -28 38 1 q16 22 28 58 q13 37 23 61 ZM323 299 q0 -3 2 -7 q13 -33 13 -135 q1 -73 -6 -92 q-3 -13 -27 -10 q-22 4 -46 7 q-10 1 -12 -5 q-1 -6 9 -15 q58 -46 77 -73 q13 -12 23 -10 q10 4 21 36 q16 31 12 89 q-3 108 -1 146 q7 39 -10 57 q-13 13 -24 19 q63 13 139 23 q16 1 16 9 q1 12 -15 20 q-28 13 -111 -8 q3 39 7 75 q0 1 3 1 q67 13 119 23 q24 6 14 19 q-13 15 -40 17 q-34 3 -93 -27 q0 13 12 65 q3 9 -14 21 q-30 16 -51 19 q-13 3 -20 -5 q-7 -6 1 -19 q21 -27 25 -198 q-171 -34 -261 -45 q-13 -1 -15 -8 q-3 -10 11 -21 q37 -27 76 -14 q139 45 166 46 ZM223 247 q-30 -46 -67 -87 q-24 -27 -13 -62 q4 -19 26 -10 q24 12 42 40 q22 31 28 61 q10 30 7 54 q-4 10 -9 11 q-9 0 -14 -7 ZM441 217 q21 -27 42 -58 q7 -12 20 -14 q9 -1 14 8 q7 10 4 34 q-3 30 -76 67 q-12 6 -17 4 q-4 -1 -5 -12 q1 -9 18 -29 ZM679 155 q88 -111 120 -115 q81 -6 147 -3 q34 1 31 11 q0 4 -32 18 q-172 69 -238 128 q0 1 1 1 q34 63 64 162 q10 30 29 50 q18 16 4 30 q-13 10 -46 20 q-25 7 -51 -9 q-25 -10 -58 -21 q-34 -10 -91 -18 q-13 -1 -18 -7 q-4 -7 14 -15 q36 -13 84 1 q43 18 51 18 q28 -1 22 -32 q-15 -84 -42 -142 q-31 34 -63 72 q-31 37 -62 40 q-16 1 -19 -2 q-3 -6 11 -17 q37 -27 112 -129 q-51 -72 -150 -112 q-13 -6 -1 -12 q4 -6 40 -3 q78 10 141 86 Z" /><glyph glyph-name="" unicode="&#x5bde;" d="M490 820 q27 -18 56 -40 q16 -12 32 -8 q10 1 15 16 q3 16 -11 46 q-9 18 -39 27 q-75 15 -87 6 q-4 -4 -2 -18 q6 -10 36 -29 ZM605 577 q51 10 124 8 q12 -1 16 7 q3 9 -8 20 q-43 31 -113 8 q-3 0 -3 -1 q6 13 15 28 q10 13 2 21 q-10 13 -39 26 q-13 7 -28 0 q-9 -6 -2 -14 q9 -18 2 -73 q-58 -10 -123 -25 q-1 21 -2 37 q1 16 -16 21 q-33 18 -53 10 q-15 -7 -2 -24 q21 -22 30 -52 q-51 -7 -103 -17 q-22 -4 -7 -15 q30 -15 91 -5 q13 4 28 7 q9 -42 22 -54 q12 -9 15 1 q4 13 -1 62 q21 10 115 19 q-12 -42 -10 -63 q1 -12 14 -2 q6 6 36 70 ZM497 156 q87 -102 183 -195 q22 -24 62 -24 q72 -4 146 11 q19 3 21 8 q1 7 -13 12 q-175 63 -197 75 q-79 45 -185 132 q-4 4 -8 6 q66 6 343 7 q19 0 25 8 q6 12 -10 26 q-54 42 -103 30 q-96 -16 -246 -37 q3 13 8 21 q6 10 -1 19 q-15 21 -44 35 q67 13 126 18 q15 -25 28 -34 q10 -7 25 11 q12 15 43 105 l0 0 q10 28 32 49 q13 10 3 24 q-13 16 -50 42 q-16 9 -102 -9 q-9 0 -229 -38 q-10 6 -45 9 q-12 1 -14 -3 q-6 -7 4 -21 q28 -49 52 -130 q4 -25 21 -39 q19 -19 22 -4 q1 4 2 11 q0 0 51 4 q0 0 1 -2 q7 -31 1 -76 q-135 -13 -288 -29 q-21 -1 -6 -19 q13 -15 32 -20 q21 -6 37 -2 q102 27 220 38 q-30 -109 -123 -159 q-36 -22 -131 -44 q-10 -1 -14 -4 q-6 -4 3 -9 q4 -1 18 -2 q81 1 142 24 q112 40 158 175 ZM605 338 q-18 4 -50 -3 q-85 -18 -161 -32 q-1 10 -4 21 q-4 16 -8 30 q7 -1 18 1 q102 16 177 27 q18 1 11 12 q-7 12 -27 16 q-13 3 -184 -35 q-9 36 -12 53 q0 1 1 1 q85 22 238 44 q34 4 45 -7 q7 -10 5 -22 q-22 -94 -37 -110 q-4 3 -12 4 ZM286 687 q22 -16 50 -10 q147 42 375 59 q36 3 49 0 q13 -10 12 -16 q1 -3 -4 -15 q-28 -60 -23 -64 q7 -4 22 6 q49 31 90 40 q34 9 33 17 q-1 9 -66 59 q-21 16 -111 2 q-102 -9 -317 -41 q-54 -7 -108 -12 q-9 27 -22 36 q-18 16 -21 -10 q6 -36 -61 -104 q-22 -21 3 -79 q13 -27 35 -1 q19 25 33 61 q18 46 31 72 Z" /><glyph glyph-name="" unicode="&#x5bdf;" d="M470 807 q22 -16 48 -37 q15 -10 29 -9 q10 1 14 15 q3 15 -9 42 q-12 25 -91 34 q-16 1 -21 -1 q-4 -4 -2 -16 q4 -10 32 -28 ZM277 677 q24 -16 52 -10 q135 39 336 55 q33 3 44 0 q19 -6 18 -13 q-15 -36 -31 -72 q0 0 1 -1 q6 -4 23 5 q51 24 90 28 q33 4 33 12 q0 10 -65 68 q-24 21 -107 6 q-163 -18 -295 -37 q-46 -6 -92 -11 q-18 34 -21 37 q-16 15 -20 -9 q0 -37 -39 -74 q-39 -30 -13 -90 q13 -25 33 -1 q16 21 30 53 q13 33 23 54 ZM276 502 q-3 -9 31 -54 q10 -13 23 -16 q9 -3 16 10 q1 10 -2 25 q-9 21 -57 42 q18 16 36 33 q9 0 23 1 q61 10 64 2 q3 -16 -27 -69 q-27 -58 -104 -132 q-76 -81 -194 -151 q-22 -10 -4 -11 q133 -3 316 234 q73 105 87 114 q12 7 8 19 q-4 10 -49 34 q-10 6 -31 -3 q-22 -7 -67 -14 q16 18 32 32 q10 9 1 23 q-30 33 -53 36 q-10 -1 -10 -13 q0 -72 -95 -146 q-21 -13 -29 -24 q-10 -12 4 -10 q22 0 81 38 ZM218 421 q25 -57 47 -60 q10 -3 18 10 q3 10 -1 26 q-10 24 -56 44 q-7 3 -9 -6 q-3 -6 1 -14 ZM600 496 q-39 43 -56 45 q-22 -1 -27 -8 q-1 -4 5 -9 q34 -16 58 -48 q112 -136 202 -228 q16 -18 42 -16 q136 15 146 30 q3 7 -7 10 q-153 48 -227 105 q-55 43 -125 110 q87 73 127 91 q10 3 10 11 q1 10 -21 24 q-58 42 -84 26 q-54 -18 -138 -32 q-19 -1 -6 -18 q15 -16 50 -9 q75 27 93 22 q16 -9 13 -19 q0 -3 -55 -87 ZM391 358 q-34 -7 -9 -21 q42 -21 90 -6 q48 10 98 22 q22 6 26 9 q7 7 3 15 q-7 10 -34 16 q-28 4 -54 -7 q-25 -9 -53 -16 q-31 -7 -67 -12 ZM465 239 q24 -72 11 -189 q-1 -1 -2 -4 q-4 -13 -28 -9 q-19 3 -42 5 q-12 1 -13 -6 q-1 -6 9 -15 q57 -51 75 -79 q13 -13 24 -12 q10 4 23 39 q16 34 15 98 q-4 75 -3 101 q7 42 -11 63 q-9 7 -15 13 q64 9 183 8 q16 1 20 8 q4 10 -9 20 q-48 31 -99 19 q-114 -22 -309 -53 q-18 -1 -4 -15 q12 -12 26 -16 q18 -4 31 0 q55 16 118 24 ZM314 167 q-28 -43 -62 -79 q-25 -30 -13 -66 q4 -19 27 -9 q51 24 65 93 q10 31 7 57 q-4 10 -9 11 q-9 0 -15 -7 ZM649 128 q42 -43 84 -94 q13 -16 29 -17 q12 -1 19 12 q7 15 2 47 q-6 46 -132 103 q-16 6 -23 4 q-6 -3 -6 -17 q3 -12 27 -38 Z" /><glyph glyph-name="" unicode="&#x5bf9;" d="M510 363 q30 -31 61 -67 q13 -15 29 -15 q10 -1 17 12 q6 13 0 45 q-7 39 -107 74 q-15 4 -22 3 q-6 -4 -5 -16 q3 -12 27 -36 ZM335 316 q37 -40 77 -89 q13 -19 26 -24 q7 -1 15 7 q12 10 3 50 q-6 39 -89 107 q37 64 61 148 q10 43 40 75 q19 19 0 32 q-24 13 -54 20 q-28 9 -54 -8 q-25 -10 -68 -25 q-48 -12 -98 -19 q-19 0 -24 -6 q-4 -13 22 -29 q30 -19 99 5 q58 28 65 28 q19 0 19 -19 q-19 -106 -50 -169 q-79 61 -124 91 q-7 4 -11 -6 q-1 -12 8 -21 q49 -49 103 -108 q-22 -33 -48 -63 q-54 -58 -159 -120 q-15 -7 -6 -13 q7 -3 29 6 q88 33 144 71 q37 27 74 79 ZM720 522 q1 -139 4 -377 q0 -22 -13 -32 q-9 -4 -96 8 q-36 10 -32 -1 q3 -7 24 -20 q76 -49 98 -79 q25 -34 43 -34 q15 0 28 36 q16 48 11 123 q-16 192 -16 384 q15 6 143 19 q12 -1 22 13 q1 13 -24 25 q-42 25 -126 -1 q-7 -1 -14 -4 q0 106 17 165 q16 31 -41 55 q-34 18 -55 11 q-19 -7 -1 -31 q22 -28 24 -63 q1 -16 4 -149 q-63 -12 -239 -33 q-33 -4 -7 -24 q39 -30 69 -23 q79 18 177 32 Z" /><glyph glyph-name="" unicode="&#x5c71;" d="M789 197 q-6 -31 -15 -52 q-18 -27 11 -90 q10 -19 24 -6 q28 24 37 124 q22 213 44 254 q10 16 -1 33 q-22 19 -58 41 q-15 9 -29 2 q-9 -4 -6 -19 q27 -49 0 -240 q-139 -12 -260 -35 q10 198 16 378 q4 46 10 77 q7 27 12 46 q4 13 -20 30 q-42 22 -70 27 q-19 4 -28 -7 q-9 -9 1 -26 q31 -46 32 -79 q10 -211 -1 -455 q-109 -18 -204 -45 q-28 -7 -21 25 q4 73 9 149 q3 28 -9 44 q-43 43 -73 36 q-12 -6 -2 -27 q36 -73 27 -146 q-4 -70 -33 -103 q-21 -21 -12 -37 q13 -18 33 -30 q16 -9 27 1 q13 16 53 32 q157 52 323 83 q151 28 183 15 Z" /><glyph glyph-name="" unicode="&#x5df1;" d="M906 154 q-21 66 -30 176 q-1 19 -10 24 q-10 6 -14 -17 q-18 -138 -37 -163 q-60 -66 -292 -63 q-129 4 -184 26 q-48 25 -58 58 q-27 85 3 211 q4 31 15 51 q60 21 307 44 q12 1 14 12 q0 9 -31 29 q42 114 87 144 q22 22 4 46 q-21 18 -87 51 q-24 12 -116 -24 q-126 -31 -219 -43 q-22 -1 -19 -14 q4 -10 27 -18 q31 -13 76 1 q94 16 183 33 q22 6 32 -4 q13 -13 7 -40 q-18 -72 -39 -130 q-129 -31 -230 -48 q-3 4 -6 7 q-57 43 -74 39 q-18 -7 -9 -26 q22 -43 16 -106 q-7 -187 12 -241 q39 -91 198 -111 q100 -12 257 0 q142 10 196 43 q34 16 21 53 Z" /><glyph glyph-name="" unicode="&#x5e76;" d="M360 723 q30 -27 62 -58 q12 -13 27 -13 q10 0 16 13 q4 13 -3 42 q-4 22 -37 39 q-69 30 -89 25 q-4 -4 -4 -16 q3 -10 28 -32 ZM628 791 q-12 -33 -71 -123 q-9 -19 9 -14 q18 13 114 94 q18 21 42 35 q22 13 8 31 q-16 16 -47 29 q-28 12 -41 7 q-13 -4 -7 -18 q6 -19 -7 -41 ZM608 -29 q6 -25 13 -36 q6 -7 14 -5 q15 9 22 72 q7 73 5 145 q-4 48 -3 203 q82 4 181 1 q82 -3 91 7 q6 13 -12 30 q-64 49 -139 31 q-54 -7 -120 -20 q0 64 11 125 q3 19 -12 29 q-19 12 -33 18 q133 27 139 30 q10 9 6 18 q-7 13 -38 23 q-31 7 -139 -23 q-169 -34 -285 -40 q-40 -4 -13 -24 q25 -15 65 -21 q1 -4 7 -14 q13 -25 14 -58 q3 -33 -3 -96 q-120 -10 -252 -25 q-24 -1 -7 -22 q34 -34 90 -22 q79 21 166 30 q-12 -147 -135 -258 q-16 -13 -19 -20 q-3 -7 10 -7 q33 -3 102 61 q73 79 98 231 q34 10 171 15 q0 -328 5 -378 ZM587 536 q15 -24 15 -144 q-42 -3 -164 -20 q6 54 15 117 q7 22 -14 33 q-18 10 -32 15 q82 13 166 26 q0 -3 14 -27 Z" /><glyph glyph-name="" unicode="&#x5e78;" d="M353 471 q39 -82 59 -89 q13 -4 24 11 q6 13 2 35 q-6 19 -27 34 q-31 27 -46 34 q-9 4 -13 -7 q-4 -7 1 -18 ZM483 189 q-3 -243 20 -267 q12 -12 23 13 q16 39 17 261 q66 6 292 6 q22 0 28 10 q7 13 -12 28 q-57 43 -99 35 q-81 -16 -209 -35 q0 51 0 100 q36 7 164 15 q10 -1 20 11 q1 12 -20 23 q-30 24 -120 1 q1 3 4 5 q21 28 44 65 q10 16 27 36 q16 10 8 22 q-7 13 -23 26 q69 3 237 4 q22 0 27 9 q6 13 -12 28 q-66 51 -110 30 q-97 -16 -251 -42 q4 49 9 96 q133 24 143 30 q9 7 5 17 q-7 12 -37 21 q-33 9 -107 -17 q1 30 11 73 q9 28 0 40 q-4 4 -9 8 q-34 19 -57 23 q-16 3 -24 -5 q-7 -7 0 -22 q18 -24 18 -40 q3 -43 5 -91 q-4 0 -9 -1 q-64 -12 -139 -16 q-37 -4 -11 -23 q36 -22 119 -12 q19 3 41 6 q0 -43 0 -93 q-168 -19 -362 -43 q-22 -3 -6 -21 q15 -15 34 -21 q22 -6 40 -1 q117 31 248 46 q64 10 150 15 q6 -33 -45 -144 q-4 -7 -7 -16 q-9 0 -16 -2 q-28 -4 -226 -24 q-28 -1 -8 -20 q27 -27 76 -19 q51 9 112 15 q-1 -49 -2 -101 q-136 -16 -294 -35 q-24 -1 -6 -21 q16 -16 35 -22 q24 -6 41 -1 q177 45 223 37 Z" /><glyph glyph-name="" unicode="&#x5f15;" d="M386 379 q19 1 28 -9 q12 -16 5 -56 q-24 -168 -78 -218 q-10 -10 -40 1 q-28 7 -52 12 q-18 6 -15 -6 q4 -13 19 -27 q36 -34 55 -67 q18 -22 38 -8 q79 54 94 122 q48 213 60 229 q13 19 1 30 q-13 19 -46 36 q-25 13 -42 5 q-31 -9 -147 -37 q-18 -4 -23 3 q-6 4 -1 16 q10 45 25 99 q1 10 3 18 q10 12 180 39 q10 1 11 11 q0 7 -20 18 q24 91 52 118 q25 28 0 44 q-22 13 -51 32 q-22 15 -60 -11 q-61 -27 -147 -41 q-12 0 -10 -7 q1 -7 15 -14 q19 -9 117 14 q43 15 51 0 q9 -7 -2 -46 q-10 -39 -22 -85 q-73 -24 -132 -40 q-12 10 -31 19 q-13 10 -23 3 q-10 -7 1 -22 q19 -34 8 -90 q-16 -73 -46 -100 q-13 -16 -7 -29 q7 -15 19 -23 q12 -9 31 9 q36 30 75 41 q70 19 107 17 ZM690 100 q-12 -45 18 -112 q7 -19 16 -23 q7 -7 15 2 q30 21 29 90 q-1 69 -2 546 q1 81 17 138 q10 16 6 32 q-7 10 -70 47 q-25 19 -49 1 q-6 -6 2 -23 q34 -48 35 -107 q16 -429 -12 -572 q-3 -9 -5 -19 Z" /><glyph glyph-name="" unicode="&#x5f53;" d="M269 611 q45 -63 85 -87 q16 -4 29 9 q7 13 6 33 q-9 49 -76 75 q-37 21 -55 16 q-7 -1 -5 -15 q0 -13 16 -31 ZM250 267 q-31 -3 -8 -22 q36 -31 66 -23 q121 22 318 41 q12 -1 22 12 q1 13 -23 25 q-36 22 -114 3 q-28 -4 -56 -11 q-36 -6 -205 -25 ZM649 139 q-216 -39 -388 -50 q-27 -1 -11 -25 q7 -12 21 -17 q13 -4 32 -2 q138 25 434 39 q15 1 17 12 q1 10 -38 40 q-1 1 -4 2 q37 201 100 263 q22 24 3 47 q-21 18 -88 50 q-24 10 -51 0 q-79 -25 -153 -40 q19 234 36 290 q4 10 -17 27 q-36 19 -61 25 q-16 4 -25 -5 q-7 -7 0 -24 q19 -28 20 -47 q7 -126 2 -274 q-99 -13 -198 -18 q-21 -1 -19 -13 q3 -10 25 -19 q30 -15 73 -3 q142 21 278 42 q36 7 49 -8 q21 -19 15 -60 q-22 -130 -52 -232 ZM679 693 q-15 -27 -92 -120 q-12 -19 9 -16 q43 24 133 83 q22 19 52 31 q25 12 12 33 q-16 21 -47 38 q-28 16 -43 14 q-16 -1 -11 -18 q4 -22 -13 -45 Z" /><glyph glyph-name="" unicode="&#x5f88;" d="M290 802 q12 -36 -72 -142 q-40 -49 -92 -100 q-10 -9 -13 -14 q-4 -10 8 -9 q49 0 195 158 q18 27 45 47 q10 9 7 22 q-1 13 -25 37 q-22 19 -40 22 q-18 1 -13 -21 ZM233 348 q18 -18 13 -103 q-1 -76 -22 -154 q-4 -19 4 -51 q10 -34 22 -44 q16 -16 28 10 q15 40 14 85 q4 169 12 208 q7 27 -2 37 q-24 25 -41 43 q28 33 58 71 q28 40 53 59 q10 10 7 24 q-3 13 -29 40 q-25 21 -45 23 q-19 0 -13 -23 q9 -27 -9 -65 q-78 -136 -225 -282 q-12 -9 -14 -15 q-4 -10 10 -10 q39 4 139 107 q19 19 40 40 ZM655 340 q-51 49 -110 113 q-4 6 -8 9 q39 10 115 20 q1 -7 4 -14 q7 -16 20 -15 q15 3 22 19 q18 27 40 153 q15 55 51 88 q19 18 2 34 q-19 16 -73 42 q-16 9 -73 -10 q-21 0 -154 -44 q-16 13 -32 21 q-19 7 -29 1 q-10 -7 -1 -24 q67 -141 14 -577 q-10 -40 -45 -83 q-13 -16 -5 -41 q10 -28 24 -41 q13 -9 27 9 q18 28 177 140 q21 12 26 21 q6 10 -5 12 q-13 0 -127 -49 q-19 -9 -19 10 q10 168 12 308 q25 -16 45 -44 q207 -270 245 -281 q42 -7 160 14 q18 3 23 11 q4 7 -7 11 q-177 61 -270 142 q-18 15 -34 30 q51 30 82 51 q84 58 102 64 q24 10 12 30 q-13 19 -41 36 q-25 16 -40 13 q-13 -1 -10 -16 q4 -33 -60 -100 q-28 -28 -60 -63 ZM649 517 q-13 7 -40 -2 q-55 -16 -100 -27 q-1 49 -1 94 q4 -1 13 0 q58 13 100 22 q22 6 13 17 q-12 13 -36 15 q-37 0 -91 -30 q0 67 10 98 q148 49 168 41 q13 -7 8 -50 q-22 -144 -35 -184 q-4 3 -9 6 Z" /><glyph glyph-name="" unicode="&#x5fc3;" d="M171 459 q-24 -78 -59 -148 q-21 -42 5 -81 q12 -21 35 -3 q25 22 38 62 q21 55 18 103 q3 40 -9 70 q-7 10 -14 10 q-10 -3 -14 -13 ZM863 228 q-4 15 -29 34 q-37 28 -136 129 q-7 7 -13 7 q-3 -1 -1 -9 q24 -51 48 -108 q10 -24 -4 -40 q-39 -33 -178 -15 q-109 18 -153 97 q-27 54 -42 112 q-7 28 -31 41 q-18 10 -25 2 q-4 -4 3 -24 q10 -25 33 -91 q37 -139 141 -185 q19 -7 45 -15 q189 -48 330 49 q15 9 12 16 ZM441 617 q34 -39 70 -86 q13 -16 30 -18 q12 -1 20 12 q7 16 3 49 q-4 45 -120 96 q-16 7 -24 5 q-6 -3 -6 -17 q1 -13 27 -41 ZM760 585 q54 -49 117 -120 q19 -24 37 -28 q10 -1 19 10 q15 16 -1 67 q-10 49 -92 78 q-51 21 -79 29 q-10 6 -13 -9 q-1 -16 12 -27 Z" /><glyph glyph-name="" unicode="&#x603b;" d="M390 369 q13 -6 32 -3 q76 16 240 26 q12 1 13 10 q0 9 -27 27 q34 100 71 127 q19 19 3 39 q-72 63 -133 38 q-102 -33 -240 -49 q-10 7 -50 12 q-13 3 -16 -2 q-7 -7 3 -24 q33 -64 54 -170 q4 -31 23 -52 q19 -22 24 -6 q3 10 3 27 ZM388 400 q0 0 0 -1 q-12 45 -29 151 q9 0 224 37 q24 4 34 -5 q10 -12 7 -33 q-13 -63 -30 -114 q-115 -25 -206 -35 ZM352 735 q28 -25 58 -55 q13 -13 27 -12 q10 0 16 13 q4 13 -3 42 q-4 21 -36 36 q-72 30 -86 24 q-4 -4 -4 -16 q3 -10 28 -32 ZM615 789 q-28 -45 -88 -115 q-6 -7 0 -15 q7 -1 16 3 q102 76 152 106 q19 4 14 17 q-7 16 -27 37 q-21 19 -45 21 q-16 -1 -15 -22 q3 -15 -7 -32 ZM217 267 q-28 -70 -70 -133 q-22 -36 -3 -72 q7 -19 31 -6 q24 18 40 51 q25 52 29 97 q6 36 -1 63 q-6 9 -12 10 q-10 -1 -14 -10 ZM313 240 q15 -115 102 -179 q100 -66 318 -67 q45 4 84 18 q28 10 31 28 q6 10 -35 44 q-61 63 -103 125 q-12 19 -18 12 q-4 -6 21 -96 q6 -45 -4 -57 q-13 -7 -48 -8 q-181 0 -256 74 q-34 31 -48 86 q-7 25 -19 31 q-13 7 -22 4 q-6 -1 -3 -15 ZM461 281 q72 -84 97 -84 q16 -1 23 19 q1 16 -9 39 q-12 19 -41 32 q-45 22 -64 25 q-12 3 -12 -11 q-1 -10 6 -20 ZM726 306 q64 -43 142 -106 q21 -19 37 -21 q10 0 16 12 q10 16 -10 60 q-21 57 -189 88 q-10 4 -10 -10 q1 -13 14 -23 Z" /><glyph glyph-name="" unicode="&#x604b;" d="M474 796 q28 -19 60 -44 q16 -10 32 -8 q10 1 15 16 q3 16 -11 46 q-7 19 -40 29 q-78 18 -90 8 q-4 -4 -2 -18 q6 -10 36 -29 ZM546 644 q0 0 1 -1 q1 -6 4 -11 q21 -30 11 -176 q-24 -66 19 -119 q10 -13 21 0 q13 18 14 80 q0 171 1 182 q3 21 -2 29 q-3 10 -22 20 q-1 1 -2 1 q9 1 191 16 q13 -3 24 12 q3 13 -24 27 q-39 30 -125 6 q-199 -36 -438 -52 q-34 -3 -9 -25 q28 -25 78 -26 q45 9 100 15 q24 -24 8 -143 q-3 -31 -13 -61 q-16 -48 12 -82 q9 -13 18 -1 q24 27 32 154 q6 79 11 99 q3 16 -11 25 q-10 7 -20 14 q55 10 121 17 ZM287 531 q-27 -45 -61 -82 q-24 -31 -11 -63 q4 -19 26 -9 q51 28 63 95 q10 31 6 55 q-4 9 -9 11 q-9 0 -14 -7 ZM679 530 q43 -46 94 -110 q13 -19 28 -25 q7 -1 16 7 q13 12 3 54 q-6 39 -72 72 q-43 22 -66 31 q-9 6 -11 -6 q-1 -13 8 -23 ZM218 255 q-30 -67 -69 -128 q-24 -36 -4 -69 q7 -19 29 -7 q24 16 39 49 q25 49 30 95 q6 34 -1 60 q-4 9 -11 10 q-9 -1 -13 -10 ZM314 229 q15 -111 96 -173 q96 -66 304 -68 q43 4 81 17 q27 10 30 26 q4 10 -34 40 q-58 55 -101 111 q-13 18 -18 10 q-3 -3 24 -95 q0 -33 -10 -41 q-13 -4 -39 -4 q-177 3 -246 74 q-33 31 -45 83 q-7 24 -18 30 q-13 7 -21 4 q-6 -1 -3 -14 ZM453 266 q76 -73 105 -72 q16 0 21 23 q0 16 -14 38 q-15 19 -44 26 q-46 16 -66 17 q-12 1 -11 -13 q-1 -10 9 -19 ZM721 294 q64 -45 142 -113 q18 -19 34 -21 q9 0 16 11 q10 15 -7 58 q-18 57 -188 97 q-10 4 -10 -9 q0 -13 13 -23 Z" /><glyph glyph-name="" unicode="&#x60f3;" d="M375 509 q67 -60 76 -62 q1 0 3 0 q7 0 12 10 q3 10 -3 32 q-4 16 -29 30 q-25 10 -54 18 q-3 1 -4 0 q0 30 2 63 q25 7 53 12 q42 10 48 17 q9 7 4 16 q-7 10 -35 18 q-24 3 -68 -11 q0 78 16 130 q7 13 5 24 q-6 7 -50 36 q-19 13 -36 2 q-4 -4 1 -17 q21 -33 22 -118 q0 -34 0 -71 q-118 -27 -173 -34 q-36 -6 -10 -22 q42 -24 94 -9 q31 7 70 14 q-54 -108 -196 -270 q-6 -10 5 -11 q15 -3 123 102 q43 43 82 110 q0 -94 -18 -157 q-9 -31 11 -83 q4 -13 11 -17 q6 -4 11 1 q7 4 15 21 q9 19 8 45 q0 24 4 181 ZM564 332 q91 12 161 16 q1 -7 7 -15 q13 -28 22 -27 q13 1 29 33 q13 25 13 45 l0 0 q-12 90 -10 229 q0 40 22 75 q10 16 2 25 q-27 22 -71 40 q-12 3 -97 -29 q-36 -10 -79 -21 q-10 13 -36 22 q-9 4 -19 0 q-7 -4 -2 -16 q21 -55 19 -208 q0 -51 -11 -102 q-13 -51 21 -90 q10 -13 19 -1 q7 12 10 24 ZM720 385 q-21 4 -153 -23 q0 12 1 90 q1 0 4 0 q70 10 123 17 q22 4 14 16 q-10 13 -34 18 q-25 3 -107 -24 q0 48 0 82 q72 15 124 23 q22 4 13 17 q-10 13 -34 16 q-33 3 -102 -27 q0 78 3 87 q69 15 141 31 q3 0 7 -2 l0 0 q10 -25 15 -91 q1 -186 -8 -233 q-1 1 -7 3 ZM229 227 q-28 -67 -66 -129 q-22 -36 -3 -72 q7 -19 31 -6 q24 18 39 52 q24 49 27 92 q4 36 -2 62 q-6 10 -12 11 q-10 -1 -14 -10 ZM325 196 q15 -111 95 -169 q96 -66 299 -67 q43 4 79 17 q27 10 30 26 q6 10 -30 42 q-52 60 -89 119 q-10 19 -17 13 q-6 -6 9 -91 q0 -45 -9 -53 q-15 -6 -50 -8 q-166 3 -232 72 q-30 28 -41 78 q-7 25 -19 32 q-13 7 -22 4 q-6 -1 -3 -15 ZM751 243 q45 -34 98 -85 q16 -19 33 -21 q7 -1 15 10 q10 13 -5 56 q-12 37 -79 56 q-40 10 -63 14 q-10 4 -11 -8 q1 -13 12 -22 ZM481 225 q48 -60 78 -73 q15 -4 24 9 q7 12 5 28 q-12 49 -92 72 q-1 1 -1 1 q-16 4 -25 2 q-7 -1 -5 -13 q1 -12 16 -26 Z" /><glyph glyph-name="" unicode="&#x6167;" d="M359 508 q6 -57 10 -66 q6 -10 13 -4 q15 12 13 78 q33 9 73 16 q13 3 14 8 q0 10 -15 18 q-27 9 -72 -6 q0 25 0 48 q60 16 65 19 q6 6 2 12 q-4 9 -27 14 q-21 4 -40 -4 q0 27 0 54 q25 7 51 11 q31 7 37 11 q7 7 3 14 q-6 9 -29 15 q-15 3 -61 -9 q0 22 3 33 q7 18 -4 27 q-13 10 -39 21 q-19 7 -38 -3 q-10 -7 3 -20 q15 -24 26 -72 q-96 -15 -108 -17 q-30 -4 -9 -19 q30 -16 92 -5 q13 3 29 5 q1 -27 4 -60 q-60 -15 -94 -19 q-27 -4 -7 -17 q27 -15 82 -3 q9 3 21 3 q0 -1 1 -3 q0 -24 1 -46 q-135 -33 -181 -38 q-10 -1 -13 -8 q-1 -9 11 -18 q33 -19 90 1 q61 22 93 29 ZM617 538 q0 -27 4 -46 q4 -10 14 -6 q7 6 21 60 q87 18 166 19 q12 -1 15 7 q4 9 -8 20 q-42 30 -130 0 q-19 -3 -39 -10 q3 27 8 51 q90 22 95 26 q7 6 3 12 q-4 9 -27 14 q-28 6 -66 -13 q6 51 7 53 q31 9 66 15 q33 9 37 13 q7 7 4 14 q-7 9 -30 14 q-27 6 -70 -13 q3 16 7 25 q9 16 -2 28 q-13 13 -37 27 q-18 9 -39 2 q-10 -7 0 -21 q15 -39 16 -78 q-43 -9 -98 -17 q-28 -4 -8 -18 q30 -15 91 -4 q6 1 14 2 q-1 -25 -3 -55 q-37 -10 -83 -15 q-27 -4 -7 -17 q30 -18 76 -5 q4 1 12 2 q-3 -27 -6 -52 q-52 -10 -111 -23 q-22 -4 -6 -15 q33 -15 87 -3 q12 4 27 7 ZM307 335 q-24 -3 -5 -17 q27 -19 50 -13 q153 36 243 48 q7 -1 15 10 q1 9 -18 17 q-22 16 -96 -7 q-16 -3 -32 -8 q-27 -6 -157 -30 ZM623 309 q-1 1 -4 0 q-174 -43 -312 -58 q-21 -1 -8 -19 q7 -9 17 -13 q10 -3 23 0 q109 27 345 51 q10 1 11 9 q0 9 -24 25 q28 85 52 118 q10 9 6 20 q-6 13 -59 39 q-15 7 -27 4 q-150 -37 -334 -66 q-22 -3 -12 -15 q12 -10 30 -15 q22 -6 38 3 q250 63 278 49 q7 -7 -20 -132 ZM232 178 q-30 -49 -67 -91 q-25 -33 -12 -72 q7 -19 31 -9 q54 30 68 106 q10 34 6 63 q-4 10 -11 11 q-9 0 -15 -8 ZM323 174 q27 -105 111 -154 q99 -55 300 -31 q40 7 75 25 q25 13 26 29 q4 10 -39 35 q-67 46 -117 98 q-15 16 -19 8 q-3 -7 3 -22 q40 -87 32 -102 q-7 -13 -47 -16 q-165 -12 -231 43 q-33 25 -49 71 q-9 25 -22 30 q-15 7 -22 2 q-6 -3 -1 -16 ZM480 188 q48 -54 78 -68 q13 -3 22 9 q4 10 3 25 q-9 43 -90 67 q-1 1 -1 1 q-15 4 -23 1 q-4 -1 -3 -12 q1 -10 14 -23 ZM735 227 q57 -43 126 -105 q16 -19 33 -21 q9 -1 15 10 q10 13 -6 56 q-18 57 -169 90 q-10 4 -11 -8 q1 -13 12 -22 Z" /><glyph glyph-name="" unicode="&#x6210;" d="M668 745 q54 -49 90 -59 q16 -1 25 14 q4 15 -1 32 q-16 40 -82 51 q-45 6 -52 2 q-6 -3 -2 -15 q4 -13 22 -25 ZM630 236 q-60 -72 -135 -137 q-7 -7 -1 -11 q9 -3 20 2 q58 25 106 65 q19 16 36 33 q78 -129 186 -208 q87 -46 110 -29 q22 10 14 53 q-10 31 -22 150 q0 25 -7 28 q-4 1 -10 -20 q-27 -85 -46 -100 q-16 -7 -59 26 q-84 67 -132 140 q55 93 75 143 q10 25 25 48 q7 10 2 21 q-7 10 -40 29 q-22 12 -33 10 q-15 -4 -12 -21 q9 -81 -48 -178 q-64 118 -96 259 q147 39 157 48 q9 9 4 17 q-7 12 -38 18 q-30 6 -133 -35 q-22 120 -3 196 q10 28 -39 55 q-39 21 -59 16 q-21 -3 -8 -33 q28 -43 35 -92 q13 -79 31 -156 q-141 -34 -207 -47 q-48 31 -74 27 q-21 -4 -4 -27 q27 -40 12 -237 q-9 -49 -31 -107 q-22 -57 -98 -133 q-15 -13 -19 -20 q-1 -7 11 -7 q37 0 102 68 q64 69 89 210 q0 9 3 17 q6 -1 13 1 q103 30 110 19 q7 -10 5 -41 q-4 -84 -22 -122 q-13 -25 -33 -21 q-18 6 -33 14 q-22 10 -9 -14 q31 -43 45 -74 q16 -18 32 -2 q48 34 68 160 q12 87 24 104 q10 12 5 20 q-9 10 -53 28 q-18 7 -34 -5 q-21 -12 -114 -34 q4 52 8 116 q1 16 4 26 q36 -9 73 3 q67 16 138 34 q46 -171 109 -293 Z" /><glyph glyph-name="" unicode="&#x6211;" d="M612 245 q-54 -48 -160 -107 q-10 -6 -4 -10 q7 -4 20 -2 q55 9 106 34 q34 15 61 35 q55 -120 162 -209 q79 -48 101 -33 q22 10 16 50 q-9 31 -15 149 q1 22 -5 26 q-4 1 -10 -18 q-27 -85 -46 -100 q-15 -4 -53 28 q-75 67 -115 138 q36 34 77 91 q15 19 31 37 q10 7 7 20 q-4 12 -32 36 q-19 18 -30 18 q-15 -1 -16 -17 q-6 -57 -63 -132 q-45 102 -60 187 q82 19 150 31 q12 -1 20 14 q1 13 -25 22 q-36 21 -107 -6 q-24 -7 -47 -16 q-28 148 1 241 q10 27 -33 53 q-34 22 -54 20 q-19 -1 -10 -30 q24 -43 28 -88 q10 -106 30 -208 q-19 -4 -37 -11 q-58 -16 -114 -31 q1 36 12 60 q7 18 -8 31 q-19 16 -40 23 q30 22 99 43 q16 1 19 9 q3 10 -10 20 q-19 13 -62 25 q-15 6 -26 4 q-7 -4 -7 -15 q1 -36 -163 -130 q-4 -9 1 -11 q12 0 89 30 q13 4 26 10 q-1 0 0 -1 q22 -36 21 -77 q0 -16 0 -32 q-10 0 -158 -30 q-31 -7 -6 -24 q39 -27 68 -16 q46 13 98 28 q1 -61 0 -115 q-85 -28 -178 -60 q-22 -7 -60 -8 q-15 -1 -16 -14 q-1 -15 9 -23 q25 -18 63 -37 q12 -3 25 7 q57 45 156 87 q-1 -61 -4 -108 q-1 -18 -11 -24 q-6 -4 -73 10 q-12 3 -11 -5 q1 -6 10 -14 q60 -58 79 -94 q13 -16 29 -3 q33 33 33 123 q-3 43 -3 139 q90 49 97 53 q15 9 14 19 q-6 6 -19 3 q-45 -16 -92 -34 q0 49 0 110 q73 22 158 41 q28 -123 67 -212 ZM687 669 q31 -21 67 -46 q16 -10 32 -8 q12 3 15 17 q1 16 -12 46 q-9 19 -43 30 q-81 18 -95 7 q-4 -4 0 -18 q4 -10 36 -28 Z" /><glyph glyph-name="" unicode="&#x6216;" d="M277 285 q4 0 11 2 q45 12 142 24 q10 1 11 10 q0 7 -24 20 q19 69 42 89 q22 25 0 40 q-63 34 -64 34 q-10 0 -18 -5 q-45 -27 -136 -45 q-12 6 -45 10 q-12 1 -15 -3 q-6 -7 3 -22 q28 -49 48 -129 q4 -24 19 -39 q19 -22 24 -5 q1 7 2 19 ZM273 317 q-15 84 -20 110 q1 3 96 23 q28 7 35 -5 q3 -3 -17 -102 q-52 -15 -94 -26 ZM138 155 q-15 -1 -16 -13 q-1 -15 8 -23 q25 -16 61 -36 q10 -4 23 6 q36 28 222 115 q25 12 44 26 q13 9 14 19 q-6 6 -19 2 q-285 -97 -337 -96 ZM618 249 q-58 -78 -182 -178 q-9 -7 -1 -11 q7 -3 20 2 q114 46 190 134 q75 -132 172 -204 q66 -45 95 -42 q21 6 11 35 q-4 46 3 178 q1 22 -7 23 q-7 0 -13 -20 q-19 -37 -37 -68 q-16 -31 -29 -31 q-13 -1 -42 20 q-69 63 -122 150 q33 33 84 159 q13 28 30 57 q9 10 2 22 q-7 10 -40 30 q-24 13 -34 11 q-15 -4 -13 -21 q6 -90 -57 -200 q-54 126 -92 307 q120 33 122 33 q10 7 5 17 q-7 12 -37 20 q-36 9 -99 -18 q-7 58 -4 113 q10 48 -55 66 q-42 13 -63 3 q-22 -9 -9 -30 q57 -43 60 -81 q9 -45 19 -87 q-162 -36 -261 -44 q-37 -6 -11 -24 q45 -24 100 -12 q90 18 182 35 q48 -198 113 -344 ZM679 750 q31 -25 66 -54 q16 -13 32 -11 q10 1 16 15 q4 16 -8 47 q-12 33 -114 53 q-16 3 -23 -1 q-6 -4 -3 -18 q4 -10 34 -31 Z" /><glyph glyph-name="" unicode="&#x62e5;" d="M274 374 q-79 -45 -147 -89 q-33 -19 -55 -26 q-12 -6 -13 -14 q-1 -9 13 -22 q19 -13 41 -21 q15 -4 25 8 q22 25 135 122 q-1 -88 -2 -201 q-1 -22 -13 -32 q-7 -4 -74 8 q-31 12 -29 2 q1 -7 21 -21 q61 -48 77 -75 q18 -31 33 -33 q13 -1 28 33 q16 43 15 113 q-7 123 -8 244 q15 13 32 25 q19 12 28 25 q6 13 -5 12 q-15 -1 -55 -31 q0 73 3 145 q72 22 77 27 q7 7 3 16 q-7 10 -37 15 q-22 3 -41 -4 q0 85 19 147 q16 28 -37 50 q-31 18 -51 12 q-16 -7 -1 -29 q19 -25 21 -58 q1 -16 1 -141 q-76 -27 -136 -36 q-34 -9 -8 -23 q45 -18 98 -2 q19 7 45 12 q-1 -67 -3 -158 ZM628 62 q4 -22 11 -31 q4 -7 12 -5 q12 9 19 62 q4 48 5 202 q48 10 91 16 q25 4 15 18 q-10 15 -38 20 q-25 3 -68 -9 q0 45 2 105 q39 9 74 14 q24 4 14 18 q-12 15 -38 19 q-19 1 -49 -6 q0 57 11 118 q3 16 -10 25 q-15 10 -25 14 q46 10 102 18 q24 3 35 -11 q13 -7 21 -70 q22 -211 17 -453 q0 -36 -13 -46 q-16 -12 -99 10 q-16 3 -15 -7 q1 -7 14 -13 q73 -46 113 -83 q22 -19 34 -16 q13 4 22 32 q15 46 11 112 q-39 469 -21 510 q13 30 5 40 q-12 15 -59 38 q-19 9 -93 -11 q-127 -25 -232 -38 q-39 24 -59 14 q-10 -7 -3 -20 q16 -18 24 -68 q0 -19 1 -41 q7 -151 -20 -277 q-24 -99 -87 -220 q-4 -7 -6 -13 q-1 -10 9 -7 q12 1 45 52 q114 150 114 490 q0 27 4 52 q7 0 16 1 q33 9 72 16 q24 -48 24 -113 q0 -24 0 -51 q-43 -13 -83 -27 q-18 -4 5 -19 q7 -6 78 7 q-1 -49 -2 -109 q-54 -13 -101 -27 q-16 -4 5 -20 q6 -4 95 8 q-7 -135 1 -220 Z" /><glyph glyph-name="" unicode="&#x62e9;" d="M285 392 q-87 -54 -163 -106 q-33 -19 -55 -27 q-12 -7 -13 -14 q-1 -9 14 -22 q19 -13 41 -21 q16 -3 25 9 q75 81 150 140 q-1 -94 -4 -216 q-1 -22 -14 -31 q-9 -7 -33 -1 q-28 4 -56 10 q-33 10 -30 0 q1 -7 23 -21 q70 -48 89 -77 q22 -34 38 -33 q15 -1 29 33 q16 46 14 118 q-7 130 -6 259 q46 37 55 48 q6 13 -5 12 q-19 -4 -49 -29 q0 64 4 126 q12 4 29 8 q36 10 40 16 q9 7 4 16 q-7 10 -36 16 q-18 3 -34 -1 q6 85 20 128 q16 30 -38 53 q-34 19 -53 13 q-18 -7 -2 -30 q21 -27 22 -61 q1 -15 -1 -122 q-102 -31 -159 -40 q-34 -9 -9 -23 q46 -19 104 -2 q30 9 63 16 q-1 -60 -4 -144 ZM637 505 q118 -118 181 -119 q72 6 130 20 q33 7 29 16 q-1 4 -34 12 q-171 27 -256 85 q-12 7 -24 15 q40 49 81 121 q18 27 43 44 q16 7 16 16 q0 13 -28 30 q-34 24 -49 24 q-10 0 -22 -8 q-115 -36 -194 -42 q-37 0 -40 -8 q-1 -4 6 -9 q45 -36 188 11 q21 6 29 0 q7 -4 -14 -53 q-9 -22 -57 -95 q-34 28 -70 59 q-34 30 -63 28 q-16 -1 -18 -6 q-1 -6 13 -14 q28 -13 45 -31 q34 -25 73 -62 q-90 -99 -215 -150 q-10 -4 -9 -9 q1 -4 8 -5 q114 -4 245 124 q3 3 6 6 ZM655 169 q72 9 201 8 q19 0 24 9 q4 10 -11 24 q-58 40 -116 21 q-42 -7 -98 -19 q1 39 3 89 q27 7 57 12 q34 9 40 13 q7 7 4 15 q-7 10 -33 18 q-24 3 -66 -10 q0 3 1 5 q3 15 6 27 q3 16 -11 26 q-31 21 -45 23 q-12 4 -27 -4 q-9 -7 -1 -17 q15 -43 17 -77 q-72 -13 -116 -18 q-33 -6 -9 -21 q36 -18 101 -7 q10 3 25 4 q0 -40 0 -88 q-90 -13 -193 -28 q-21 -3 -5 -19 q13 -13 31 -18 q21 -4 36 0 q61 16 131 25 q1 -25 1 -55 q1 -138 16 -160 q6 -7 13 -5 q13 9 20 65 q3 34 4 162 Z" /><glyph glyph-name="" unicode="&#x6349;" d="M492 277 q129 -109 267 -207 q25 -19 62 -16 q69 6 137 28 q18 4 19 10 q1 7 -14 10 q-198 51 -209 55 q-52 21 -89 40 q4 85 7 157 q22 -3 102 12 q21 6 44 11 q16 4 19 8 q7 7 3 16 q-7 10 -37 16 q-28 3 -57 -11 q-30 -10 -72 -19 q3 112 4 113 q-15 15 -30 25 q52 9 132 16 q10 1 12 10 q0 7 -20 21 q28 84 59 100 q16 19 3 36 q-66 54 -100 42 q-4 0 -6 -2 q-72 -27 -199 -46 q-12 6 -45 10 q-12 3 -15 -3 q-6 -7 3 -22 q30 -54 50 -144 q4 -27 21 -44 q19 -22 24 -5 q1 7 3 17 q1 3 39 8 q15 -27 16 -133 q0 -58 -1 -167 q-31 19 -62 39 q-36 25 -58 40 q42 82 44 84 q-1 3 -1 3 q-3 9 -16 18 q-33 24 -63 15 q-7 -4 -4 -15 q21 -57 -54 -175 q-24 -36 -77 -102 q-7 138 -6 276 q18 15 36 27 q19 13 30 27 q6 13 -5 12 q-10 0 -61 -35 q0 61 3 121 q90 33 92 33 q7 9 2 17 q-7 12 -38 16 q-28 3 -54 -9 q0 96 20 160 q16 28 -36 50 q-31 19 -51 12 q-16 -6 -2 -28 q21 -27 22 -59 q1 -16 0 -155 q-78 -27 -143 -40 q-37 -10 -8 -24 q46 -21 100 -1 q24 7 50 15 q-1 -58 -3 -135 q-204 -120 -214 -126 q-15 -6 -17 -15 q0 -9 14 -22 q19 -13 41 -21 q15 -4 25 8 q36 40 151 135 q-1 -102 -4 -233 q-1 -25 -15 -34 q-4 -3 -74 6 q-31 10 -29 1 q1 -7 21 -21 q61 -46 78 -72 q19 -31 34 -32 q13 -1 27 33 q15 37 14 97 q4 4 17 11 q66 40 142 156 ZM715 580 q-82 -22 -149 -34 q-3 9 -25 124 q42 6 170 30 q19 4 27 -4 q12 -15 -16 -115 q-4 0 -7 -1 Z" /><glyph glyph-name="" unicode="&#x6355;" d="M290 395 q-223 -136 -226 -139 q-15 -7 -17 -16 q-1 -10 15 -24 q21 -16 46 -23 q16 -4 27 10 q51 60 154 146 q-1 -91 -2 -204 q0 -24 -13 -33 q-1 0 -54 8 q-31 16 -30 5 q1 -7 20 -24 q51 -52 62 -80 q13 -33 26 -35 q15 -1 31 32 q19 46 21 120 q-9 127 -10 254 q55 51 57 51 q6 15 -6 13 q-1 0 -51 -30 q0 61 2 123 q16 6 38 11 q33 10 37 15 q9 9 3 17 q-7 12 -38 17 q-22 3 -39 -3 q12 138 20 163 q16 30 -39 52 q-34 19 -53 12 q-18 -7 -1 -30 q21 -27 22 -61 q1 -16 1 -156 q-87 -30 -146 -39 q-37 -10 -9 -24 q39 -16 110 0 q19 6 44 12 q-1 -60 -2 -140 ZM596 203 q-3 -148 16 -180 q15 -15 23 6 q12 27 16 187 q28 9 58 16 q24 6 27 9 q7 7 3 14 q-7 9 -30 14 q-16 3 -58 -11 q1 34 1 75 q69 21 77 24 q7 7 2 14 q-7 9 -30 13 q-25 3 -48 -9 q-1 0 -1 -1 q0 39 0 79 q40 10 88 17 q18 3 27 -8 q9 -4 12 -45 q12 -135 6 -288 q0 -22 -8 -29 q-9 -9 -60 -6 q-16 3 -15 -7 q1 -7 14 -13 q49 -37 73 -67 q22 -19 34 -16 q13 3 23 32 q15 45 12 111 q-15 178 -17 245 q1 37 12 60 q12 21 1 32 q-10 15 -55 37 q-18 10 -36 5 q-37 -12 -111 -31 q0 58 2 104 q18 3 202 22 q18 1 21 9 q4 10 -11 22 q-58 36 -96 17 q-46 -13 -115 -30 q1 135 24 169 q7 15 -13 30 q-24 19 -66 30 q-18 4 -30 -9 q-10 -7 2 -19 q28 -25 30 -58 q0 -58 0 -154 q-73 -16 -160 -34 q-19 -4 -4 -18 q30 -22 63 -13 q46 16 101 26 q0 -46 0 -104 q-60 -10 -118 -18 q-16 16 -47 14 q-13 -4 -7 -15 q55 -103 9 -307 q-27 -70 5 -106 q7 -13 16 -7 q33 24 34 141 q0 196 3 244 q7 1 12 2 q42 12 92 22 q-1 -46 -1 -86 q-24 -4 -48 -9 q-28 -7 -7 -19 q15 -9 54 -9 q-1 -43 -2 -78 q-28 -6 -60 -11 q-28 -6 -7 -18 q27 -15 66 -9 ZM750 765 q40 -48 74 -62 q13 -3 23 10 q6 12 3 28 q-9 39 -67 56 q-39 10 -46 7 q-6 -1 -3 -13 q1 -12 16 -26 Z" /><glyph glyph-name="" unicode="&#x63a5;" d="M282 398 q-192 -117 -205 -121 q-12 -6 -13 -13 q-1 -9 13 -21 q18 -13 38 -20 q15 -4 24 7 q48 52 142 127 q-1 -94 -4 -214 q-1 -22 -14 -32 q-6 -3 -66 10 q-33 13 -30 4 q1 -7 20 -23 q58 -52 72 -81 q16 -34 31 -36 q13 -1 30 33 q19 46 19 120 q-7 130 -7 259 q21 18 43 32 q19 13 30 28 q6 12 -4 11 q-12 0 -69 -40 q0 67 4 133 q21 7 44 12 q36 10 40 16 q9 7 4 16 q-7 10 -36 16 q-27 4 -50 -6 q0 75 20 141 q16 31 -38 53 q-34 19 -53 12 q-18 -6 -2 -29 q22 -27 22 -61 q1 -16 0 -135 q-90 -27 -144 -35 q-34 -9 -9 -23 q40 -18 106 -2 q21 6 46 12 q-1 -63 -4 -150 ZM597 767 q27 -21 54 -46 q15 -13 31 -11 q10 1 15 14 q4 16 -7 45 q-6 19 -36 31 q-73 21 -86 15 q-4 -4 -3 -17 q4 -10 32 -31 ZM514 552 q30 -61 50 -67 q10 -4 19 10 q4 10 -1 29 q-9 27 -59 49 q-7 3 -10 -6 q-3 -7 1 -15 ZM751 283 q51 3 177 4 q19 0 23 8 q4 10 -10 24 q-54 39 -124 20 q-25 -4 -53 -11 q-9 12 -30 19 q-16 10 -34 7 q-10 -3 -6 -17 q4 -7 6 -20 q-60 -4 -115 -16 q19 48 34 68 q9 7 5 17 q-4 12 -30 30 q84 16 242 36 q9 -1 17 10 q1 10 -18 19 q-33 16 -93 -1 q-31 -6 -62 -15 q12 15 49 85 q7 16 22 37 q13 12 5 22 q-10 15 -38 32 q24 7 53 12 q42 10 48 17 q9 7 4 15 q-7 10 -33 17 q-25 4 -128 -30 q-144 -28 -154 -30 q-34 -6 -9 -21 q36 -19 101 -5 q40 9 84 18 q0 -1 2 -5 q10 -30 -28 -144 q-4 -15 -6 -26 q-30 -4 -196 -27 q-25 -3 -6 -17 q30 -21 55 -16 q22 6 50 9 q7 -19 1 -42 q-10 -39 -21 -72 q-84 -9 -172 -21 q-19 -3 -5 -18 q13 -13 30 -18 q19 -4 35 -1 q46 13 99 22 q-13 -31 -27 -54 q-10 -18 -6 -30 q3 -10 20 -13 q45 -10 94 -36 q1 0 1 -1 q-60 -48 -193 -85 q-15 -7 3 -10 q123 -13 235 71 q61 -34 151 -103 q25 -19 43 -18 q21 1 21 20 q-1 21 -31 65 q-13 27 -151 76 q37 51 60 117 q4 16 9 26 ZM607 271 q40 7 91 9 q-6 -48 -62 -124 q-48 18 -83 26 q-22 4 -11 25 q15 34 27 59 q18 4 38 5 Z" /><glyph glyph-name="" unicode="&#x6551;" d="M310 517 q-1 -139 -4 -382 q-1 -22 -13 -31 q-10 -6 -31 1 q-25 7 -50 14 q-31 12 -29 2 q1 -7 20 -22 q66 -51 82 -80 q19 -34 35 -35 q13 -1 28 33 q18 43 16 114 q-10 198 -7 395 q7 3 18 4 q55 9 99 16 q10 -1 20 12 q0 12 -23 21 q-30 24 -110 -6 q-1 0 -3 -1 q15 147 19 155 q16 28 -37 50 q-31 18 -51 11 q-16 -6 -1 -28 q19 -25 22 -58 q1 -16 1 -142 q-70 -16 -192 -35 q-28 -4 -6 -21 q37 -24 62 -17 q60 15 135 30 ZM160 408 q54 -67 80 -71 q13 -1 21 18 q1 13 -8 35 q-21 33 -88 46 q-10 1 -11 -10 q-1 -9 6 -18 ZM64 186 q-10 -4 -10 -14 q1 -12 12 -17 q24 -7 58 -16 q10 0 18 11 q13 22 105 109 q13 12 21 24 q9 10 7 18 q-6 3 -16 -2 q-157 -103 -195 -113 ZM434 447 q-19 -25 -58 -65 q-4 -4 -1 -10 q6 -1 12 1 q67 40 101 54 q13 1 11 11 q-4 13 -17 27 q-13 16 -30 18 q-10 1 -12 -14 q1 -10 -6 -22 ZM380 307 q36 -39 78 -94 q10 -16 22 -21 q7 -1 13 6 q10 9 3 43 q-3 33 -58 62 q-36 19 -55 27 q-7 4 -9 -4 q-1 -10 6 -19 ZM438 672 q57 -57 73 -59 q10 0 14 12 q4 13 -2 38 q-4 18 -31 31 q-64 24 -76 21 q-4 -4 -4 -15 q3 -10 26 -28 ZM662 195 q120 -160 143 -170 q45 -9 160 4 q18 1 25 9 q4 7 -7 12 q-166 63 -244 140 q-25 22 -52 51 q30 60 46 165 q4 22 9 33 q7 6 1 16 q-10 16 -51 25 q177 42 184 47 q9 9 4 17 q-7 12 -38 18 q-27 4 -122 -27 q-66 -15 -114 -24 q69 111 95 163 q13 36 29 53 q7 12 1 25 q-6 12 -37 30 q-28 15 -47 12 q-18 -4 -7 -25 q13 -21 9 -41 q-16 -67 -45 -134 q-28 -64 -70 -135 q-7 -10 -9 -18 q-1 -10 11 -7 q0 0 51 50 q30 -12 73 -11 q0 -4 5 -12 q30 -81 -12 -182 q-37 43 -79 94 q-12 19 -30 22 q-25 1 -33 -7 q-4 -4 5 -11 q37 -22 60 -59 q28 -42 57 -82 q-52 -75 -141 -122 q-21 -10 -44 -22 q-22 -10 4 -12 q45 -3 128 40 q1 1 5 3 q37 18 77 72 Z" /><glyph glyph-name="" unicode="&#x65e5;" d="M608 120 q33 -42 57 -81 q10 -21 23 -20 q19 1 36 40 q21 45 16 98 q-12 153 -19 436 q-1 36 17 61 q10 15 0 27 q-22 22 -82 49 q-21 10 -39 -1 q-105 -45 -268 -65 q-1 1 -2 2 q-25 21 -55 30 q-10 1 -18 -7 q-4 -7 5 -19 q52 -139 15 -409 q-7 -45 -23 -92 q-9 -28 -4 -51 q10 -37 24 -53 q13 -15 23 1 q10 13 18 36 q13 -4 29 -2 q79 15 247 20 ZM640 144 q-7 9 -26 22 q-18 12 -53 4 q-123 -24 -222 -33 q10 49 11 101 q0 78 1 153 q39 -13 82 -4 q60 12 121 24 q28 6 33 10 q9 7 4 16 q-7 10 -35 18 q-25 6 -106 -20 q-75 -12 -98 -15 q1 156 9 206 q49 9 229 46 q34 7 50 -6 q51 -51 18 -502 q-1 -1 -1 -5 q-4 -16 -17 -15 Z" /><glyph glyph-name="" unicode="&#x65f6;" d="M191 187 q7 9 117 11 q10 -16 22 -33 q16 -24 23 -21 q12 3 26 36 q10 28 6 146 q-15 291 7 328 q10 18 2 29 q-7 10 -56 25 q-22 9 -40 -1 q-55 -25 -102 -35 q-18 18 -40 24 q-10 4 -22 1 q-7 -6 -1 -18 q18 -78 20 -82 q0 -4 1 -12 q12 -207 -19 -329 q-15 -55 22 -102 q10 -13 22 -1 q10 16 12 34 ZM304 235 q-16 9 -109 -14 q1 22 1 54 q1 82 2 144 q54 13 96 21 q21 6 12 17 q-12 13 -36 14 q-46 3 -71 -21 q3 168 5 182 q1 7 1 13 q103 21 106 21 q3 0 7 -4 q13 -13 14 -68 q4 -223 -5 -346 q3 -19 -12 -21 q-4 4 -11 8 ZM700 529 q1 -148 2 -411 q-1 -25 -14 -34 q-6 -4 -87 9 q-33 10 -30 0 q1 -7 23 -21 q70 -48 89 -77 q22 -34 38 -33 q15 -1 28 34 q16 46 12 118 q-15 211 -12 422 q84 12 169 25 q3 3 6 6 q1 13 -23 25 q-42 24 -129 -2 q-12 -3 -22 -6 q0 117 17 173 q16 31 -39 52 q-34 19 -53 11 q-18 -7 -1 -29 q22 -27 23 -61 q1 -18 3 -157 q-1 1 -3 0 q-36 -6 -272 -38 q-31 -3 -7 -23 q36 -30 67 -22 q94 19 215 39 ZM483 348 q30 -30 60 -65 q13 -13 29 -15 q10 0 17 13 q6 15 -1 45 q-6 34 -106 70 q-16 4 -22 3 q-6 -4 -5 -17 q3 -10 28 -34 Z" /><glyph glyph-name="" unicode="&#x660e;" d="M322 335 q24 -31 41 -60 q7 -16 18 -15 q15 1 29 30 q16 34 13 76 q-7 94 -11 268 q-1 28 14 47 q7 10 0 20 q-16 18 -63 39 q-16 7 -30 0 q-42 -21 -142 -42 q-1 1 -2 2 q-28 21 -45 13 q-7 -4 -1 -17 q1 -9 6 -18 q28 -48 7 -275 q-24 -88 12 -136 q0 0 2 -2 q10 -13 21 0 q7 12 14 58 q6 0 14 1 q34 7 103 11 ZM354 360 q-7 7 -20 15 q-16 10 -47 1 q-43 -10 -81 -18 q0 67 1 135 q61 9 105 18 q22 4 14 17 q-12 15 -38 17 q-40 3 -80 -21 q1 117 4 127 q1 12 0 19 q15 1 35 7 q96 19 104 14 q24 -21 8 -315 q-1 -3 -1 -7 q-1 -6 -4 -9 ZM581 369 q27 -9 152 12 q19 4 22 7 q7 7 4 14 q-7 10 -32 16 q-25 6 -51 -4 q-22 -7 -45 -12 q-22 -4 -45 -6 q0 4 1 7 q10 66 15 148 q24 -6 130 15 q16 4 19 6 q7 7 4 14 q-7 10 -32 16 q-18 3 -86 -15 q-18 -1 -33 -6 q6 130 9 143 q4 3 12 4 q57 12 112 25 q22 4 27 -7 q18 -45 25 -370 q1 -261 -11 -281 q-4 -7 -24 -2 q-34 10 -70 21 q-21 7 -20 -3 q67 -57 105 -98 q13 -21 30 -25 q10 -4 19 6 q42 58 40 109 q-16 208 -24 545 q-3 61 12 88 q12 21 -1 32 q-22 19 -62 34 q-19 7 -36 -1 q-54 -30 -139 -44 q-4 4 -9 6 q-49 25 -64 22 q-21 -4 -4 -26 q37 -69 14 -317 q-7 -102 -61 -222 q-40 -93 -160 -204 q-15 -13 -18 -20 q-1 -7 10 -6 q46 0 138 101 q99 112 127 278 Z" /><glyph glyph-name="" unicode="&#x6613;" d="M417 538 q72 12 128 18 q42 -42 44 -43 q10 -7 25 15 q15 31 36 196 l0 0 q7 31 28 56 q12 13 0 26 q-16 16 -58 38 q-21 6 -187 -35 q-25 -6 -46 -13 q-24 18 -49 25 q-6 1 -11 -3 q-7 -4 1 -15 q34 -63 36 -208 q3 -69 35 -85 q16 -4 18 23 q0 3 0 5 ZM553 591 q-30 4 -136 -27 q-1 16 -6 34 q-3 22 -5 50 q75 12 130 22 q21 4 13 15 q-10 13 -32 16 q-25 3 -113 -27 q-3 49 -3 90 q57 18 154 36 q22 4 29 -3 q16 -18 14 -36 q-16 -148 -27 -176 q-7 4 -18 6 ZM564 410 q0 -66 -144 -245 q-7 -6 -14 -14 q-60 -57 -152 -114 q-7 -4 -12 -8 q-7 -9 3 -12 q43 -7 155 68 q3 3 7 5 q91 73 167 188 q27 42 45 62 q15 9 14 25 q-6 21 -30 51 q39 12 105 13 q18 0 24 -8 q12 -28 -11 -178 q-18 -114 -56 -174 q-15 -28 -32 -27 q-15 -4 -95 28 q-10 4 -11 -2 q-1 -4 11 -16 q45 -52 63 -88 q10 -24 25 -23 q18 -4 37 13 q67 42 100 170 q24 85 45 218 q4 31 26 51 q15 15 14 24 q-1 9 -21 25 q-28 24 -67 37 q-27 12 -78 -7 q-222 -48 -314 -57 q19 22 29 32 q10 12 7 21 q-3 12 -28 18 q-27 9 -38 5 q-7 -1 -9 -14 q-12 -70 -165 -205 q-19 -15 6 -11 q69 7 179 132 q21 -6 47 -7 q0 0 1 -2 q0 -72 -155 -200 q-10 -4 -13 -13 q0 -4 4 -4 q36 -4 123 70 q39 34 65 65 q16 19 27 29 q7 7 3 20 q-10 24 -24 38 q0 0 137 21 Z" /><glyph glyph-name="" unicode="&#x662f;" d="M435 522 q3 -1 12 0 q75 10 133 15 q18 -24 33 -32 q10 -7 25 14 q15 25 43 160 l0 0 q9 30 31 54 q13 12 2 25 q-15 16 -56 42 q-15 9 -86 -7 q-6 0 -111 -20 q-40 -7 -75 -14 q-12 4 -38 10 q-12 3 -15 -2 q-7 -7 2 -23 q33 -70 50 -183 q4 -34 23 -58 q18 -22 23 -6 q3 10 4 25 ZM577 572 q-30 4 -143 -26 q-1 18 -14 78 q4 -1 10 0 q76 13 133 21 q22 4 14 16 q-10 13 -34 17 q-30 3 -127 -30 q-10 58 -13 80 q120 33 189 33 q18 3 27 -6 q13 -15 10 -31 q-21 -139 -38 -157 q-6 4 -14 5 ZM337 222 q184 -154 349 -237 q25 -13 85 -1 q51 12 104 25 q34 10 41 21 q6 12 -14 12 q-79 10 -127 11 q-126 9 -243 81 q-1 1 -2 1 q4 69 8 127 q9 -4 25 -2 q85 16 147 27 q27 6 16 20 q-13 16 -43 20 q-30 3 -143 -40 q1 52 7 85 q7 21 -22 46 q114 15 279 15 q78 0 84 10 q4 12 -12 26 q-60 45 -123 25 q-198 -39 -604 -91 q-22 -3 -6 -20 q33 -30 72 -20 q129 36 262 50 q12 -15 12 -109 q-1 -51 -2 -144 q-64 40 -133 90 q21 42 32 51 q7 6 5 16 q-3 10 -16 20 q-33 30 -66 20 q-9 -3 -5 -15 q18 -60 -76 -196 q-4 -4 -8 -10 q-28 -37 -100 -112 q-7 -6 3 -8 q54 10 149 114 q6 10 15 19 q21 28 50 73 Z" /><glyph glyph-name="" unicode="&#x667a;" d="M336 530 q-46 -120 -133 -179 q-4 -1 -6 -4 q-15 -9 -56 -33 q-13 -7 -1 -11 q52 -4 127 49 q34 24 77 82 q1 4 5 7 q19 30 44 101 q61 13 135 21 q16 3 17 10 q1 13 -16 22 q-27 12 -49 6 q-40 -7 -73 -16 q6 27 21 48 q10 16 -4 25 q-15 15 -28 21 q135 34 140 39 q7 7 3 15 q-7 10 -34 16 q-28 4 -54 -8 q-31 -13 -66 -22 q-37 -10 -82 -17 q7 10 13 19 q24 37 45 69 q10 12 -4 25 q-37 30 -62 28 q-10 -3 -9 -16 q10 -84 -79 -186 q-9 -3 -38 -42 q-7 -13 6 -10 q48 9 115 94 q1 0 4 -2 q27 -13 57 -11 q10 -30 -4 -99 q-127 -24 -234 -37 q-13 -1 -16 -9 q-3 -10 12 -22 q34 -22 91 -10 q78 25 136 37 ZM417 473 q40 -54 66 -67 q12 -3 21 7 q6 10 5 24 q-6 31 -78 67 q-13 4 -21 3 q-6 -1 -5 -11 q1 -10 12 -23 ZM639 463 q6 0 13 1 q52 12 164 20 q10 1 12 9 q0 7 -27 25 q24 76 49 99 q25 27 1 43 q-21 13 -49 34 q-19 13 -40 2 q-42 -24 -157 -42 q-10 6 -39 11 q-12 3 -15 -2 q-6 -6 2 -21 q25 -58 41 -152 q3 -28 19 -47 q16 -21 21 -6 q4 10 5 26 ZM636 494 q0 1 0 4 q-16 94 -19 126 q34 4 114 19 q28 4 35 -7 q6 -6 -22 -119 q-61 -13 -108 -23 ZM404 48 q1 0 6 0 q55 9 173 10 q28 -37 49 -73 q10 -18 20 -18 q16 1 33 34 q19 37 16 85 q-6 67 -11 195 q-1 31 16 52 q9 13 0 23 q-19 19 -70 44 q-18 9 -33 0 q-72 -33 -202 -52 q-19 13 -40 20 q-7 1 -14 -6 q-3 -4 4 -15 q33 -69 8 -221 q-13 -51 -9 -67 q9 -31 20 -43 q10 -13 19 0 q9 10 15 32 ZM600 83 q-30 30 -109 12 q-43 -6 -81 -12 q3 36 3 106 q4 0 13 0 q91 10 159 15 q24 3 16 16 q-10 16 -35 21 q-33 6 -152 -25 q1 76 5 100 q184 37 196 33 q3 -1 7 -4 q25 -25 7 -255 q-6 -19 -23 -10 q-3 1 -6 3 q-1 1 0 0 Z" /><glyph glyph-name="" unicode="&#x66f4;" d="M447 137 q141 -123 241 -174 q51 -18 244 22 q13 6 17 15 q4 10 -20 12 q-70 16 -147 26 q-139 24 -306 139 q28 57 41 182 q43 6 98 9 q19 -33 37 -44 q12 -10 30 14 q18 27 60 173 l0 0 q10 34 38 62 q16 13 3 30 q-16 19 -64 50 q-21 12 -105 -10 q-15 0 -95 -19 q1 34 11 70 q4 12 -5 19 q-9 7 -22 13 q73 16 152 31 q52 12 60 19 q10 9 5 18 q-9 13 -42 22 q-28 6 -132 -27 q-123 -30 -215 -39 q-40 -7 -11 -26 q45 -28 110 -13 q1 1 4 0 q25 -25 29 -53 q1 -22 2 -44 q-16 -1 -33 -6 q-72 -15 -127 -25 q-24 13 -49 17 q-7 1 -12 -3 q-7 -7 3 -17 q39 -48 56 -179 q7 -63 45 -85 q1 0 3 -1 q16 -3 17 23 q7 0 15 1 q33 7 82 13 q-12 -99 -36 -141 q-6 4 -12 10 q-108 90 -172 84 q-13 -1 -23 -4 q-10 -6 -5 -15 q7 -10 20 -10 q39 -3 168 -100 q-58 -73 -257 -148 q-13 -3 -17 -7 q-6 -4 9 -9 q22 -1 98 18 q55 13 131 50 q48 25 78 57 ZM521 473 q40 7 77 13 q25 4 15 18 q-10 15 -38 20 q-22 3 -55 -7 q0 37 -1 68 q-1 3 -1 5 q138 31 158 12 q13 -18 10 -34 q-37 -156 -54 -170 q-28 22 -113 0 q1 37 2 75 ZM470 503 q-46 -13 -87 -25 q-16 -4 5 -19 q10 -7 31 -4 q25 6 51 9 q0 -40 -3 -77 q-55 -9 -103 -15 q-4 19 -11 38 q-22 124 -23 136 q9 9 137 34 q1 -39 3 -77 Z" /><glyph glyph-name="" unicode="&#x6709;" d="M424 197 q4 0 11 0 q91 12 158 18 q25 3 16 17 q-10 16 -37 21 q-33 6 -146 -27 q4 57 9 98 q6 -1 17 0 q79 13 138 22 q25 4 15 18 q-12 15 -38 19 q-31 3 -129 -32 q4 70 10 93 q1 7 1 12 q76 16 155 33 q21 6 26 -5 q21 -55 19 -365 q-6 -69 -10 -76 q-4 -6 -24 -2 q-28 7 -56 14 q-19 6 -19 -4 q58 -49 91 -86 q13 -19 29 -23 q10 -4 18 6 q39 51 38 104 q-36 372 -9 421 q12 19 0 30 q-22 19 -59 33 q-19 7 -34 0 q-72 -39 -187 -51 q-9 6 -16 7 q31 57 61 134 q129 21 396 20 q22 0 28 10 q6 13 -13 28 q-66 46 -129 28 q-40 -7 -268 -46 q27 84 53 134 q7 10 1 21 q-7 10 -40 28 q-24 12 -34 8 q-13 -4 -11 -20 q10 -84 -18 -173 q-1 -1 -2 -5 q-129 -15 -273 -34 q-24 -3 -6 -22 q34 -31 77 -22 q88 25 188 38 q-67 -157 -223 -314 q-49 -46 -119 -106 q-7 -9 -1 -11 q9 -3 20 3 q193 99 290 260 q30 -114 -22 -301 q-10 -30 -22 -51 q-21 -36 9 -82 q0 0 2 -2 q7 -15 17 -9 q36 21 52 191 Z" /><glyph glyph-name="" unicode="&#x6765;" d="M321 517 q25 -25 51 -55 q12 -12 26 -13 q10 0 15 12 q4 13 -1 40 q-7 30 -92 59 q-13 4 -20 3 q-4 -4 -4 -15 q1 -10 25 -31 ZM637 574 q-22 -34 -65 -84 q-7 -7 -1 -15 q7 -1 16 3 q84 52 125 72 q19 4 15 15 q-6 16 -25 37 q-19 19 -42 22 q-16 0 -15 -20 q1 -15 -8 -30 ZM439 368 q-7 -19 -25 -43 q-55 -75 -117 -126 q-52 -46 -158 -110 q-19 -13 -2 -16 q30 -6 132 45 q67 43 136 111 q43 45 69 86 q3 6 7 11 q0 -165 -25 -258 q-12 -39 15 -102 q7 -18 15 -21 q7 -7 14 2 q7 4 18 25 q10 25 8 57 q-1 40 0 327 q90 -135 207 -279 q19 -24 54 -24 q118 -1 156 4 q10 3 13 8 q1 6 -15 14 q-156 63 -209 107 q-88 79 -190 190 q13 1 305 1 q22 -1 27 8 q7 13 -11 28 q-54 43 -95 36 q-91 -16 -241 -36 q0 189 2 222 q61 10 126 18 q61 10 70 18 q10 7 5 17 q-7 13 -35 22 q-31 7 -62 -2 q-49 -13 -100 -26 q4 40 14 74 q9 16 6 29 q-7 10 -63 44 q-24 16 -45 1 q-4 -4 2 -21 q36 -52 36 -136 q-82 -13 -175 -16 q-37 -4 -12 -23 q45 -28 99 -17 q43 7 89 12 q3 -81 0 -220 q-147 -13 -318 -30 q-22 -1 -6 -20 q15 -16 33 -22 q22 -7 40 -2 q97 24 206 33 Z" /><glyph glyph-name="" unicode="&#x679c;" d="M517 345 q187 -241 234 -259 q72 -18 187 -4 q21 1 23 6 q3 7 -14 15 q-192 88 -215 103 q-84 54 -205 174 q-3 1 -3 2 q57 6 301 6 q21 0 25 8 q6 12 -10 26 q-54 39 -90 32 q-90 -16 -233 -37 q0 49 0 100 q42 7 80 11 q21 -34 39 -43 q12 -9 28 14 q16 25 52 169 l0 0 q10 34 37 61 q15 13 2 28 q-16 19 -62 49 q-19 9 -94 -6 q-27 -1 -180 -25 q-105 -15 -144 -12 q-4 1 -9 1 q-13 4 -17 -2 q-7 -7 3 -25 q37 -73 60 -196 q4 -37 26 -61 q19 -24 25 -6 q3 10 4 22 q7 0 17 1 q45 7 86 13 q0 -49 -1 -99 q-147 -16 -312 -33 q-21 -1 -6 -19 q13 -13 32 -20 q21 -6 37 -1 q94 24 202 34 q-6 -19 -24 -45 q-54 -78 -115 -131 q-51 -46 -156 -116 q-19 -13 -2 -14 q12 -3 53 14 q58 19 110 58 q111 87 166 181 q7 13 14 22 q0 -177 -11 -299 q-3 -42 22 -75 q13 -15 22 3 q27 52 20 97 q-3 46 -4 278 ZM518 616 q-1 7 -1 15 q33 6 62 10 q22 4 14 16 q-10 13 -34 18 q-16 3 -42 -4 q0 43 3 51 q3 12 -6 19 q-6 4 -16 10 q135 21 152 3 q13 -16 10 -33 q-30 -156 -50 -170 q-33 21 -93 -2 q1 34 1 67 ZM467 709 q0 -25 1 -51 q-52 -13 -97 -26 q-16 -4 3 -17 q10 -7 31 -4 q33 7 64 11 q0 -40 0 -82 q-55 -10 -103 -19 q-1 16 -5 34 q-27 129 -32 167 q52 15 130 24 q7 -13 8 -37 Z" /><glyph glyph-name="" unicode="&#x67d0;" d="M422 440 q7 -1 18 1 q42 10 130 17 q6 -12 11 -26 q9 -16 25 -10 q16 10 16 41 q13 180 24 236 q81 7 149 13 q10 -3 20 10 q1 12 -20 23 q-33 27 -135 -2 q-3 0 -5 -1 q0 1 1 2 q1 30 25 65 q7 10 -4 25 q-22 22 -51 36 q-18 10 -33 6 q-15 -4 -9 -20 q22 -43 16 -110 q-1 -7 -1 -15 q-21 -3 -39 -7 q-75 -13 -144 -22 q-1 34 2 52 q6 19 -7 30 q-16 12 -44 21 q-22 6 -42 -5 q-10 -9 4 -22 q25 -34 32 -80 q-69 -3 -143 -10 q-28 -1 -8 -20 q25 -25 79 -19 q36 6 78 12 q15 -106 19 -198 q4 -28 13 -46 q7 -10 15 -3 q6 6 8 26 ZM568 495 q-16 7 -44 0 q-55 -15 -99 -23 q0 36 -3 80 q0 1 1 1 q64 12 113 19 q22 4 13 17 q-10 13 -34 16 q-40 3 -94 -24 q-1 46 -4 88 q82 13 179 24 q-10 -148 -26 -200 q-1 1 -2 2 ZM518 268 q204 -225 252 -237 q66 -10 166 9 q19 1 21 7 q3 7 -13 13 q-202 78 -227 94 q-69 42 -198 151 q0 4 1 6 q96 9 336 9 q22 0 27 9 q6 13 -12 28 q-57 45 -121 28 q-91 -16 -228 -37 q3 40 0 43 q-22 19 -41 29 q-12 4 -21 -3 q-6 -3 1 -13 q9 -15 10 -63 q-151 -16 -325 -37 q-22 -3 -6 -21 q15 -15 34 -21 q22 -6 40 -1 q103 28 220 40 q-6 -18 -24 -39 q-57 -73 -118 -120 q-52 -43 -157 -103 q-18 -10 -2 -14 q39 -4 138 48 q84 60 121 97 q43 42 70 81 q4 7 8 12 q-15 -199 -20 -212 q-9 -37 23 -87 q10 -18 19 -22 q10 -1 16 11 q13 31 9 61 q-1 130 1 241 q0 7 0 13 Z" /><glyph glyph-name="" unicode="&#x6807;" d="M329 432 q42 -42 55 -42 q10 -1 17 14 q1 10 -7 27 q-12 21 -64 39 q0 30 2 61 q91 30 93 32 q9 9 3 17 q-7 12 -38 17 q-30 4 -56 -9 q1 91 20 151 q9 16 6 29 q-7 10 -62 45 q-24 18 -45 2 q-4 -4 1 -21 q31 -46 32 -95 q0 -61 0 -131 q-93 -31 -167 -45 q-37 -9 -9 -24 q45 -19 100 -3 q28 9 63 17 q-28 -79 -68 -151 q-43 -76 -147 -216 q-6 -10 6 -11 q6 -1 16 8 q123 108 202 265 q-9 -201 -9 -206 q-7 -43 -20 -85 q-10 -39 14 -102 q7 -19 15 -22 q6 -7 14 2 q27 16 28 82 q-1 40 5 355 ZM521 585 q-40 -9 -10 -26 q45 -24 105 -6 q69 16 139 35 q33 9 37 13 q10 10 4 18 q-9 13 -40 19 q-33 4 -65 -10 q-36 -13 -75 -25 q-43 -12 -95 -18 ZM596 392 q13 -37 16 -141 q6 -111 -4 -138 q-3 -16 -31 -14 q-37 7 -78 13 q-12 -1 -12 -8 q-1 -6 11 -14 q82 -51 111 -82 q19 -13 32 -9 q10 4 21 39 q15 36 8 98 q-7 145 -5 197 q6 42 -14 62 q-4 4 -7 6 q76 13 203 19 q51 0 58 11 q6 13 -12 26 q-64 39 -120 19 q-180 -39 -333 -68 q-22 -4 -5 -21 q30 -25 84 -13 q34 10 77 18 ZM467 270 q-25 -43 -58 -81 q-22 -30 -10 -64 q4 -18 26 -8 q51 31 60 95 q9 31 5 55 q-4 9 -9 11 q-9 -1 -14 -8 ZM743 264 q48 -51 103 -122 q15 -22 30 -27 q9 -1 17 7 q13 13 4 59 q-6 42 -78 79 q-46 25 -72 35 q-9 6 -12 -6 q-1 -13 8 -25 Z" /><glyph glyph-name="" unicode="&#x6b21;" d="M218 589 q27 -28 55 -61 q13 -16 32 -17 q13 -1 19 14 q7 16 0 51 q-4 22 -37 41 q-79 36 -95 30 q-6 -4 -6 -18 q4 -13 32 -40 ZM171 243 q-10 -15 -27 -12 q-10 3 -19 7 q-18 7 -18 -15 q18 -75 63 -89 q18 -4 28 20 q33 78 136 241 q13 13 12 24 q0 13 -16 4 q-81 -90 -159 -180 ZM514 558 q21 -19 47 -11 q63 25 134 39 q36 10 48 6 q16 -10 12 -20 q0 -6 -63 -99 q-7 -10 -3 -17 q4 -4 16 6 q115 82 165 101 q13 3 13 13 q1 13 -29 31 q-22 16 -47 31 q-28 18 -45 10 q-88 -36 -232 -61 q18 36 31 71 q22 61 45 113 q9 16 -10 29 q-54 28 -81 20 q-13 -4 -7 -21 q33 -114 -70 -285 q-27 -36 -51 -76 q-6 -19 10 -11 q40 13 117 131 ZM559 297 q108 -165 191 -251 q24 -27 47 -26 q66 9 123 16 q24 3 24 9 q1 7 -27 20 q-150 69 -178 92 q-82 70 -171 177 q4 16 8 35 q4 22 10 33 q7 7 1 18 q-6 7 -36 19 q-34 16 -49 11 q-13 -6 -2 -23 q27 -72 -5 -159 q-40 -117 -191 -188 q-24 -10 -51 -22 q-25 -12 5 -14 q91 -3 195 70 q13 12 26 26 q51 55 80 157 Z" /><glyph glyph-name="" unicode="&#x6b22;" d="M303 293 q102 -111 112 -114 q7 -1 14 7 q10 10 1 48 q-9 39 -98 107 q34 72 66 179 q10 30 27 49 q16 16 3 28 q-13 10 -45 19 q-24 6 -48 -10 q-27 -13 -63 -26 q-37 -12 -98 -22 q-13 -1 -18 -9 q-4 -7 15 -14 q37 -12 84 5 q54 22 63 23 q25 1 23 -27 q-18 -97 -49 -166 q-79 58 -124 85 q-7 4 -10 -6 q-1 -10 8 -20 q49 -45 103 -101 q-63 -99 -191 -144 q-12 -7 0 -12 q6 -7 47 -3 q99 12 178 124 ZM511 568 q27 -16 55 -7 q75 39 162 54 q13 4 21 4 q16 -10 15 -18 q1 -3 -3 -16 q-24 -69 -16 -72 q7 -3 22 10 q48 40 88 55 q34 15 32 23 q-1 10 -74 52 q-24 15 -90 -6 q-28 0 -197 -52 q22 42 46 97 q12 34 24 51 q7 12 0 23 q-6 12 -37 28 q-28 12 -47 8 q-16 -4 -5 -24 q24 -33 -22 -163 q-22 -61 -56 -129 q-7 -10 -9 -17 q-1 -12 12 -6 q27 12 79 105 ZM608 305 q10 -10 18 -26 q150 -246 182 -255 q84 0 126 6 q15 1 20 8 q4 6 -5 10 q-147 82 -207 147 q-51 52 -113 133 q-6 10 -13 14 q12 72 31 107 q10 19 -7 28 q-18 15 -33 21 q-22 15 -43 8 q-13 -4 -8 -20 q33 -60 -13 -211 q-1 -3 -3 -9 q-46 -121 -169 -204 q-12 -9 -23 -18 q-13 -9 -1 -12 q61 0 142 70 q46 37 76 95 q39 91 43 108 Z" /><glyph glyph-name="" unicode="&#x6b63;" d="M300 131 q-97 -7 -200 -17 q-25 -1 -7 -23 q16 -18 38 -25 q25 -7 45 -2 q291 67 708 46 q1 1 4 0 q24 -1 30 9 q7 15 -12 32 q-67 52 -122 39 q-97 -16 -250 -36 q3 144 5 266 q39 -9 77 2 q141 30 151 35 q10 9 5 18 q-9 13 -40 20 q-33 6 -65 -8 q-31 -10 -64 -19 q-30 -6 -63 -11 q3 177 4 178 q-1 3 -2 3 q-19 19 -37 29 q85 16 178 32 q61 13 71 21 q10 9 5 18 q-7 13 -40 23 q-33 7 -145 -27 q-153 -33 -253 -41 q-42 -4 -13 -25 q46 -27 123 -13 q13 3 29 4 q24 -63 25 -68 q0 -360 -1 -442 q-67 -6 -138 -14 q-24 210 -19 267 q1 25 -15 39 q-27 18 -58 27 q-16 4 -26 -3 q-7 -7 0 -24 q25 -42 38 -87 q10 -45 34 -223 Z" /></font>
</defs>
</svg>
